<svg width="20" height="20" viewBox="0 0 20 20" fill="none" xmlns="http://www.w3.org/2000/svg">
<g clip-path="url(#clip0_7_630)">
<path d="M10 0C15.5229 0 20 4.47708 20 10C20 15.5229 15.5229 20 10 20C4.47708 20 0 15.5229 0 10C0 4.47708 4.47708 0 10 0ZM10 7.91667H8.75C8.58946 7.91664 8.43506 7.97839 8.31882 8.08912C8.20257 8.19985 8.13339 8.35107 8.12563 8.51142C8.11786 8.67178 8.17209 8.82897 8.27709 8.95042C8.38208 9.07187 8.52979 9.14826 8.68958 9.16375L8.75 9.16667H9.375V13.75H8.54167C8.38112 13.75 8.22673 13.8117 8.11048 13.9225C7.99424 14.0332 7.92506 14.1844 7.91729 14.3448C7.90952 14.5051 7.96376 14.6623 8.06876 14.7838C8.17375 14.9052 8.32146 14.9816 8.48125 14.9971L8.54167 15H11.4583C11.6188 14.9999 11.7732 14.9381 11.8893 14.8273C12.0055 14.7166 12.0746 14.5654 12.0823 14.405C12.09 14.2447 12.0358 14.0876 11.9308 13.9662C11.8258 13.8448 11.6781 13.7684 11.5183 13.7529L11.4583 13.75H10.625V8.54167C10.625 8.3863 10.5671 8.2365 10.4627 8.12149C10.3582 8.00648 10.2146 7.9345 10.06 7.91958L10 7.91667ZM9.79167 5C9.57065 5 9.35869 5.0878 9.20241 5.24408C9.04613 5.40036 8.95833 5.61232 8.95833 5.83333C8.95833 6.05435 9.04613 6.26631 9.20241 6.42259C9.35869 6.57887 9.57065 6.66667 9.79167 6.66667C10.0127 6.66667 10.2246 6.57887 10.3809 6.42259C10.5372 6.26631 10.625 6.05435 10.625 5.83333C10.625 5.61232 10.5372 5.40036 10.3809 5.24408C10.2246 5.0878 10.0127 5 9.79167 5Z" fill="#FC446E"/>
</g>
<defs>
<clipPath id="clip0_7_630">
<rect width="20" height="20" fill="white"/>
</clipPath>
</defs>
</svg>
