<svg width="43" height="42" viewBox="0 0 43 42" fill="none" xmlns="http://www.w3.org/2000/svg">
<path d="M30.1582 0.123473C32.3942 0.224575 33.9212 0.580398 35.2565 1.09903C36.6378 1.63605 37.809 2.35426 38.9763 3.52152C40.1435 4.68878 40.8618 5.85998 41.3988 7.24126C41.9174 8.5779 42.2719 10.1036 42.3743 12.3397C42.4694 14.4196 42.4966 15.1852 42.5 19.8507V22.1471C42.4966 26.8126 42.4694 27.5782 42.3743 29.6582C42.2732 31.8942 41.9174 33.4212 41.3988 34.7565C40.8618 36.1378 40.1435 37.309 38.9763 38.4763C37.809 39.6435 36.6378 40.3618 35.2565 40.8988C33.9199 41.4174 32.3942 41.7719 30.1582 41.8743C28.0782 41.9694 27.3126 41.9966 22.6471 42H20.3507C15.6852 41.9966 14.9196 41.9694 12.8397 41.8743C10.6036 41.7732 9.07658 41.4174 7.74126 40.8988C6.35998 40.3618 5.18878 39.6435 4.02152 38.4763C2.85426 37.309 2.13605 36.1378 1.59903 34.7565C1.0804 33.4199 0.725888 31.8942 0.623473 29.6582C0.539347 27.8182 0.508378 27.0068 0.5 23.6144V18.3835C0.508378 14.991 0.539347 14.1796 0.623473 12.3397C0.724575 10.1036 1.0804 8.57658 1.59903 7.24126C2.13605 5.85998 2.85426 4.68878 4.02152 3.52152C5.18878 2.35426 6.35998 1.63605 7.74126 1.09903C9.0779 0.580398 10.6036 0.225888 12.8397 0.123473C14.6796 0.0393474 15.491 0.00837793 18.8835 0H24.1144C27.5068 0.00837793 28.3182 0.0393474 30.1582 0.123473ZM21.4923 10.2107C15.5384 10.2107 10.7107 15.0371 10.7107 20.9923C10.7107 26.9463 15.5371 31.774 21.4923 31.774C27.4463 31.774 32.274 26.9476 32.274 20.9923C32.274 15.0384 27.4476 10.2107 21.4923 10.2107ZM21.4923 13.9923C25.3579 13.9923 28.4911 17.1254 28.4911 20.991C28.4911 24.8566 25.3579 27.9898 21.4923 27.9898C17.6268 27.9898 14.4936 24.8566 14.4936 20.991C14.4936 17.1254 17.6268 13.9923 21.4923 13.9923ZM32.7006 7.26656C31.3092 7.26656 30.1817 8.39408 30.1817 9.78543C30.1817 11.1768 31.3092 12.3043 32.7006 12.3043C34.0919 12.3043 35.2194 11.1768 35.2194 9.78543C35.2194 8.39408 34.0919 7.26656 32.7006 7.26656Z" fill="white"/>
</svg>
