<svg width="12" height="14" viewBox="0 0 12 14" fill="none" xmlns="http://www.w3.org/2000/svg">
<path fill-rule="evenodd" clip-rule="evenodd" d="M1 5.35615C1 2.7405 3.32856 0.625 6.20764 0.625C9.08672 0.625 11.4153 2.7405 11.4153 5.35615C11.4153 8.90452 6.20764 13.1595 6.20764 13.1595C6.20764 13.1595 1 8.90452 1 5.35615ZM4.34745 5.35613C4.34745 4.42294 5.18014 3.66643 6.20732 3.66643C6.87179 3.66643 7.48578 3.98849 7.81802 4.51128C8.15025 5.03408 8.15025 5.67818 7.81802 6.20098C7.48578 6.72377 6.87179 7.04583 6.20732 7.04583C5.18014 7.04583 4.34745 6.28932 4.34745 5.35613Z" fill="#FF246B" fill-opacity="0.04"/>
<path d="M6.20764 13.1595L5.95455 13.4692L6.20764 13.676L6.46073 13.4692L6.20764 13.1595ZM6.20764 0.225C3.14463 0.225 0.6 2.48433 0.6 5.35615H1.4C1.4 2.99667 3.51249 1.025 6.20764 1.025V0.225ZM11.8153 5.35615C11.8153 2.48433 9.27065 0.225 6.20764 0.225V1.025C8.90279 1.025 11.0153 2.99667 11.0153 5.35615H11.8153ZM6.20764 13.1595C6.46073 13.4692 6.46081 13.4692 6.46091 13.4691C6.46097 13.469 6.46109 13.4689 6.46121 13.4688C6.46145 13.4686 6.46177 13.4684 6.46217 13.4681C6.46297 13.4674 6.46408 13.4665 6.4655 13.4653C6.46834 13.463 6.47242 13.4596 6.47769 13.4553C6.48823 13.4465 6.50356 13.4338 6.52336 13.4171C6.56295 13.3839 6.62042 13.3352 6.69322 13.2721C6.83878 13.1461 7.04581 12.9628 7.29384 12.732C7.78937 12.2709 8.45116 11.6175 9.11417 10.8499C9.77609 10.0836 10.4464 9.19511 10.953 8.26346C11.4575 7.33563 11.8153 6.33641 11.8153 5.35615H11.0153C11.0153 6.15007 10.7221 7.01337 10.2502 7.88131C9.78031 8.74545 9.14873 9.58604 8.50875 10.327C7.86984 11.0667 7.22973 11.6988 6.74883 12.1464C6.50864 12.3699 6.30882 12.5468 6.16959 12.6673C6.09999 12.7276 6.04558 12.7737 6.00889 12.8045C5.99054 12.8199 5.97663 12.8315 5.96747 12.8391C5.96288 12.8429 5.95949 12.8457 5.95733 12.8475C5.95624 12.8483 5.95547 12.849 5.955 12.8494C5.95477 12.8495 5.95462 12.8497 5.95454 12.8497C5.9545 12.8498 5.95451 12.8498 5.95449 12.8498C5.95451 12.8498 5.95455 12.8497 6.20764 13.1595ZM0.6 5.35615C0.6 6.33641 0.957783 7.33563 1.46228 8.26346C1.96885 9.19511 2.63918 10.0836 3.30111 10.8499C3.96411 11.6175 4.62591 12.2709 5.12144 12.732C5.36947 12.9628 5.5765 13.1461 5.72206 13.2721C5.79486 13.3352 5.85233 13.3839 5.89192 13.4171C5.91171 13.4338 5.92704 13.4465 5.93759 13.4553C5.94286 13.4596 5.94694 13.463 5.94978 13.4653C5.9512 13.4665 5.95231 13.4674 5.95311 13.4681C5.9535 13.4684 5.95382 13.4686 5.95407 13.4688C5.95419 13.4689 5.95431 13.469 5.95437 13.4691C5.95447 13.4692 5.95455 13.4692 6.20764 13.1595C6.46073 12.8497 6.46077 12.8498 6.46079 12.8498C6.46077 12.8498 6.46077 12.8498 6.46074 12.8497C6.46066 12.8497 6.46051 12.8495 6.46027 12.8494C6.45981 12.849 6.45903 12.8483 6.45795 12.8475C6.45579 12.8457 6.45239 12.8429 6.44781 12.8391C6.43865 12.8315 6.42474 12.8199 6.40639 12.8045C6.3697 12.7737 6.31528 12.7276 6.24568 12.6673C6.10645 12.5468 5.90664 12.3699 5.66645 12.1464C5.18555 11.6988 4.54543 11.0667 3.90653 10.327C3.26654 9.58604 2.63497 8.74545 2.16511 7.88131C1.69317 7.01337 1.4 6.15007 1.4 5.35615H0.6ZM6.20732 3.26643C4.99621 3.26643 3.94745 4.16677 3.94745 5.35613H4.74745C4.74745 4.6791 5.36407 4.06643 6.20732 4.06643V3.26643ZM8.15561 4.29674C7.7438 3.64873 6.99671 3.26643 6.20732 3.26643V4.06643C6.74687 4.06643 7.22776 4.32825 7.48042 4.72582L8.15561 4.29674ZM8.15561 6.41552C8.57105 5.7618 8.57105 4.95046 8.15561 4.29674L7.48042 4.72582C7.72945 5.11769 7.72945 5.59457 7.48042 5.98644L8.15561 6.41552ZM6.20732 7.44583C6.99671 7.44583 7.7438 7.06354 8.15561 6.41552L7.48042 5.98644C7.22776 6.38401 6.74687 6.64583 6.20732 6.64583V7.44583ZM3.94745 5.35613C3.94745 6.54549 4.99621 7.44583 6.20732 7.44583V6.64583C5.36407 6.64583 4.74745 6.03316 4.74745 5.35613H3.94745Z" fill="#FF246B"/>
</svg>
