<svg width="79" height="34" viewBox="0 0 79 34" fill="none" xmlns="http://www.w3.org/2000/svg">
<g clip-path="url(#clip0_1_466)">
<path d="M25.913 33.9999H17.9655C19.2455 30.3368 20.4583 26.9526 21.6066 23.8449C22.7549 20.7385 23.8773 17.8104 24.9765 15.063C26.0757 12.3157 27.1581 9.70787 28.225 7.23824C29.2906 4.76991 30.3988 2.35711 31.5471 0.00244141H38.8023C39.9196 2.35711 41.02 4.76991 42.105 7.23824C43.1887 9.70787 44.2815 12.3157 45.3832 15.063C46.4837 17.8104 47.6087 20.7372 48.7596 23.8449C49.9092 26.9526 51.1246 30.338 52.4072 33.9999H44.2104C43.832 32.818 43.4251 31.6051 42.9898 30.36C42.5545 29.1149 42.1205 27.8749 41.6891 26.6401H28.411C27.9822 27.88 27.5508 29.1226 27.1206 30.369C26.6892 31.6155 26.2875 32.8258 25.9155 33.9986L25.913 33.9999Z" fill="#4F2B4D"/>
<path d="M39.1524 13.2253C38.0571 12.13 36.2811 12.13 35.1844 13.2253C34.0891 12.13 32.3131 12.13 31.2165 13.2253C30.1212 14.3206 30.1212 16.0966 31.2165 17.1932L35.1844 21.1612L39.1524 17.1932C40.2477 16.0979 40.2477 14.3219 39.1524 13.2253Z" fill="#FC446E"/>
<path d="M0 33.9922V0H25.9995L23.7211 6.42594H7.65171V13.539H21.0228L18.4731 19.965H7.65171V33.9935H0V33.9922Z" fill="#4F2B4D"/>
<path d="M57.867 33.9921C56.5133 31.1375 55.1791 28.1745 53.8629 25.103C52.5467 22.0327 51.2964 18.9948 50.1119 15.9891C48.9275 12.9835 47.8386 10.107 46.8454 7.35833C45.8521 4.60971 44.9931 2.15688 44.2711 -0.000173198H52.7082C53.3449 1.9683 54.0515 4.08789 54.8303 6.35602C55.6092 8.62544 56.4035 10.8871 57.2108 13.141C58.0181 15.395 58.7931 17.5546 59.5332 19.6186C60.2733 21.684 60.9824 23.4664 61.6605 24.9673C62.2986 23.4755 62.9974 21.6982 63.7543 19.6328C64.5112 17.5688 65.2952 15.4105 66.1025 13.1552C66.9098 10.9013 67.7029 8.63965 68.4817 6.37022C69.2606 4.10209 69.9697 1.97734 70.6091 -0.00146484H78.7555C77.9934 2.16721 77.1177 4.62263 76.127 7.36479C75.1363 10.1082 74.0526 12.9835 72.8746 15.9917C71.6979 19.0012 70.4554 22.0418 69.1482 25.1159C67.8411 28.19 66.512 31.1479 65.1648 33.9908H57.867V33.9921Z" fill="#4F2B4D"/>
</g>
<defs>
<clipPath id="clip0_1_466">
<rect width="78.7555" height="34" fill="white"/>
</clipPath>
</defs>
</svg>
