<svg width="56" height="24" viewBox="0 0 56 24" fill="none" xmlns="http://www.w3.org/2000/svg">
<g clip-path="url(#clip0_1_835)">
<path d="M18.2915 24.0001H12.6815C13.5851 21.4144 14.4412 19.0256 15.2517 16.8319C16.0623 14.6392 16.8546 12.5723 17.6305 10.633C18.4064 8.69367 19.1704 6.85284 19.9236 5.10958C20.6757 3.36722 21.458 1.66407 22.2686 0.00195312H27.3899C28.1785 1.66407 28.9553 3.36722 29.7212 5.10958C30.4862 6.85284 31.2575 8.69367 32.0352 10.633C32.812 12.5723 33.6062 14.6383 34.4186 16.8319C35.23 19.0256 36.088 21.4153 36.9933 24.0001H31.2074C30.9402 23.1659 30.653 22.3097 30.3458 21.4308C30.0385 20.5519 29.7322 19.6766 29.4276 18.805H20.0548C19.7521 19.6803 19.4476 20.5574 19.144 21.4372C18.8395 22.317 18.5559 23.1713 18.2933 23.9992L18.2915 24.0001Z" fill="white"/>
<path d="M27.637 9.33524C26.8638 8.56208 25.6102 8.56208 24.8361 9.33524C24.0629 8.56208 22.8093 8.56208 22.0352 9.33524C21.262 10.1084 21.262 11.3621 22.0352 12.1361L24.8361 14.937L27.637 12.1361C28.4102 11.363 28.4102 10.1093 27.637 9.33524Z" fill="#FC446E"/>
<path d="M0 23.9945V0H18.3526L16.7443 4.53596H5.40121V9.55696H14.8396L13.0399 14.0929H5.40121V23.9954H0V23.9945Z" fill="white"/>
<path d="M40.8473 23.9945C39.8918 21.9795 38.95 19.8879 38.0209 17.7198C37.0918 15.5526 36.2093 13.4081 35.3732 11.2865C34.5371 9.16485 33.7685 7.13438 33.0674 5.19418C32.3662 3.25397 31.7599 1.52256 31.2502 -6.48124e-05H37.2058C37.6553 1.38944 38.154 2.88562 38.7038 4.48666C39.2536 6.0886 39.8143 7.68508 40.3842 9.27608C40.954 10.8671 41.5011 12.3915 42.0235 13.8485C42.5459 15.3064 43.0465 16.5646 43.5251 17.6241C43.9755 16.571 44.4688 15.3164 45.0031 13.8585C45.5374 12.4016 46.0908 10.878 46.6606 9.28611C47.2305 7.69511 47.7903 6.09863 48.3401 4.49669C48.8899 2.89565 49.3904 1.39582 49.8417 -0.000976562H55.5921C55.0542 1.52985 54.4361 3.26309 53.7367 5.19873C53.0374 7.13529 52.2725 9.16485 51.441 11.2883C50.6103 13.4127 49.7332 15.559 48.8105 17.7289C47.8879 19.8989 46.9497 21.9868 45.9987 23.9936H40.8473V23.9945Z" fill="white"/>
</g>
<defs>
<clipPath id="clip0_1_835">
<rect width="55.5921" height="24" fill="white"/>
</clipPath>
</defs>
</svg>
