<svg xmlns="http://www.w3.org/2000/svg" width="" height="" viewBox="" fill="none">
	<g filter="url(#filter0_d_1_149)">
		<path d="M66.9236 85.8964L66.7771 85.75H66.57H46.94C43.3861 85.75 40.5 82.8639 40.5 79.31V26.94C40.5 23.3861 43.3861 20.5 46.94 20.5H115.67H115.68C119.234 20.5 122.12 23.3861 122.12 26.94V79.31C122.12 82.8639 119.234 85.75 115.68 85.75H96.05H95.8429L95.6964 85.8964L81.31 100.283L66.9236 85.8964Z" fill="white" stroke="#EBEBEB"/>
		<path d="M94.56 42.3998C90.9 38.7398 84.97 38.7398 81.31 42.3998C77.65 38.7398 71.72 38.7398 68.06 42.3998C64.4 46.0598 64.4 51.9898 68.06 55.6498L81.31 68.8998L94.56 55.6498C98.22 51.9898 98.22 46.0598 94.56 42.3998Z" fill="#FC446E"/>
	</g>
</svg>