<svg width="8" height="14" viewBox="0 0 8 14" fill="none" xmlns="http://www.w3.org/2000/svg">
<path d="M3.93531 6.29816C2.30517 5.87447 1.78094 5.43641 1.78094 4.7542C1.78094 3.97145 2.50624 3.42567 3.71987 3.42567C4.99813 3.42567 5.47208 4.03608 5.51517 4.93373H7.10222C7.05195 3.69856 6.29792 2.56393 4.79705 2.19769V0.625H2.64269V2.17614C1.24953 2.47775 0.129262 3.38259 0.129262 4.76856C0.129262 6.42742 1.50087 7.25326 3.50443 7.7344C5.29974 8.16527 5.6588 8.79722 5.6588 9.46507C5.6588 9.96058 5.30692 10.7505 3.71987 10.7505C2.24054 10.7505 1.65886 10.0898 1.57987 9.24246H0C0.0861746 10.8151 1.26389 11.6984 2.64269 11.9929V13.5512H4.79705V12.0072C6.19739 11.7415 7.31048 10.93 7.31048 9.45789C7.31048 7.41843 5.56544 6.72185 3.93531 6.29816Z" fill="#FF246B"/>
</svg>
