<svg width="12" height="14" viewBox="0 0 12 14" fill="none" xmlns="http://www.w3.org/2000/svg">
<path d="M10.6954 8.45905V8.20905H10.4454H8.73689V3.23635C8.73689 2.76002 9.04807 2.17048 9.60651 1.68917C10.1024 1.26174 10.7665 0.944791 11.5011 0.88515V13.4318H10.6954V8.45905ZM5.2227 5.44486H5.4727V5.19486V0.875H6.27838V5.19486C6.27838 6.49956 5.22173 7.55621 3.91703 7.55621H3.66703V7.80621V13.4318H2.86135V7.80621V7.55621H2.61135C1.30665 7.55621 0.25 6.49956 0.25 5.19486V0.875H1.05568V5.19486V5.44486H1.30568H2.61135H2.86135V5.19486V0.875H3.66703V5.19486V5.44486H3.91703H5.2227Z" stroke="#FF246B" stroke-width="0.5"/>
</svg>
