<svg width="27" height="26" viewBox="0 0 27 26" fill="none" xmlns="http://www.w3.org/2000/svg">
<mask id="path-1-inside-1_7_658" fill="white">
<path d="M24.7636 0H2.60168C1.36649 0 0.364227 0.995843 0.364227 2.22313V18.9996C0.364227 20.2269 1.36649 21.2227 2.60168 21.2227H8.93046L13.6821 25.9439L18.4338 21.2227H24.7625C25.9988 21.2227 27 20.2269 27 18.9996V2.22313C27 0.995843 25.9977 0 24.7625 0"/>
</mask>
<path d="M8.93046 21.2227L9.63529 20.5133L9.34279 20.2227H8.93046V21.2227ZM13.6821 25.9439L12.9773 26.6533L13.6821 27.3536L14.3869 26.6533L13.6821 25.9439ZM18.4338 21.2227V20.2227H18.0214L17.7289 20.5133L18.4338 21.2227ZM24.7636 -1H2.60168V1H24.7636V-1ZM2.60168 -1C0.82027 -1 -0.635773 0.437511 -0.635773 2.22313H1.36423C1.36423 1.55417 1.91271 1 2.60168 1V-1ZM-0.635773 2.22313V18.9996H1.36423V2.22313H-0.635773ZM-0.635773 18.9996C-0.635773 20.7852 0.820271 22.2227 2.60168 22.2227V20.2227C1.91271 20.2227 1.36423 19.6685 1.36423 18.9996H-0.635773ZM2.60168 22.2227H8.93046V20.2227H2.60168V22.2227ZM8.22563 21.9321L12.9773 26.6533L14.3869 25.2346L9.63529 20.5133L8.22563 21.9321ZM14.3869 26.6533L19.1386 21.9321L17.7289 20.5133L12.9773 25.2346L14.3869 26.6533ZM18.4338 22.2227H24.7625V20.2227H18.4338V22.2227ZM24.7625 22.2227C26.5453 22.2227 28 20.7849 28 18.9996H26C26 19.6688 25.4523 20.2227 24.7625 20.2227V22.2227ZM28 18.9996V2.22313H26V18.9996H28ZM28 2.22313C28 0.437511 26.544 -1 24.7625 -1V1C25.4515 1 26 1.55417 26 2.22313H28Z" fill="#FF246B" mask="url(#path-1-inside-1_7_658)"/>
<path d="M13.159 7.45918L13.5096 7.80434L13.8604 7.45934C14.8536 6.48247 16.466 6.48208 17.4574 7.45902C18.445 8.43214 18.4451 10.0051 17.4576 10.9783C17.4576 10.9783 17.4576 10.9783 17.4576 10.9783C17.4575 10.9784 17.4575 10.9784 17.4574 10.9784L13.5098 14.8647L9.56197 10.9783C8.57346 10.0051 8.57346 8.43232 9.56197 7.45918C10.5547 6.48186 12.1671 6.48269 13.159 7.45918Z" stroke="#FF246B"/>
</svg>
