<svg width="110" height="110" viewBox="0 0 110 110" fill="none" xmlns="http://www.w3.org/2000/svg">
<g clip-path="url(#clip0_1_198)">
<path d="M53.738 75.6038L66.4161 86.7023V99.3804" stroke="#FFABB2" stroke-linecap="round" stroke-linejoin="round"/>
<path d="M71.3862 52.7045C73.3939 52.7045 75.0156 50.774 75.0156 48.3942C75.0156 46.0145 73.3869 44.084 71.3862 44.084" stroke="#FC446E" stroke-width="2" stroke-linecap="round" stroke-linejoin="round"/>
<path d="M38.4696 52.7045C36.4619 52.7045 34.8403 50.774 34.8403 48.3942C34.8403 46.0145 36.4689 44.084 38.4696 44.084" stroke="#FC446E" stroke-width="2" stroke-linecap="round" stroke-linejoin="round"/>
<path d="M39.4734 36.7693H71.9689" stroke="#FFABB2" stroke-linecap="round" stroke-linejoin="round"/>
<path d="M65.2297 72.0376L75.2823 73.9611C84.5206 75.2738 91.3791 83.1853 91.3791 92.5148V99.7735H18.4697V92.5148C18.4697 83.1853 25.3353 75.2738 34.5665 73.9611L44.6191 72.0376" stroke="#FC446E" stroke-width="2" stroke-linecap="round" stroke-linejoin="round"/>
<path d="M54.9525 58.5662C54.9525 59.9 53.7591 60.9881 52.2919 60.9881C49.7647 60.9881 46.9988 59.9491 46.9988 59.9491C46.9988 59.9491 49.7647 56.1443 52.2919 56.1443C53.7591 56.1443 54.9525 57.2254 54.9525 58.5662Z" stroke="#FC446E" stroke-width="2" stroke-linecap="round" stroke-linejoin="round"/>
<path d="M55.2964 58.5662C55.2964 59.9 56.4898 60.9881 57.957 60.9881C60.4842 60.9881 63.2501 59.9491 63.2501 59.9491C63.2501 59.9491 60.4842 56.1443 57.957 56.1443C56.4898 56.1443 55.2964 57.2254 55.2964 58.5662Z" stroke="#FC446E" stroke-width="2" stroke-linecap="round" stroke-linejoin="round"/>
<path d="M64.4365 65.6985V71.7357C64.4365 76.9866 45.4124 76.9866 45.4124 71.7357V65.6985" stroke="#FC446E" stroke-width="2" stroke-linecap="round" stroke-linejoin="round"/>
<path d="M39.8666 44.3018V53.5541C39.8666 61.8727 46.6057 68.6119 54.9244 68.6119C63.2431 68.6119 69.9822 61.8727 69.9822 53.5541V44.3018" stroke="#FC446E" stroke-width="2" stroke-linecap="round" stroke-linejoin="round"/>
<path d="M48.5854 50.2404C49.2406 50.2404 49.7717 49.7093 49.7717 49.054C49.7717 48.3988 49.2406 47.8677 48.5854 47.8677C47.9301 47.8677 47.399 48.3988 47.399 49.054C47.399 49.7093 47.9301 50.2404 48.5854 50.2404Z" fill="#FC446E"/>
<path d="M60.4772 50.2404C61.1324 50.2404 61.6636 49.7093 61.6636 49.054C61.6636 48.3988 61.1324 47.8677 60.4772 47.8677C59.822 47.8677 59.2908 48.3988 59.2908 49.054C59.2908 49.7093 59.822 50.2404 60.4772 50.2404Z" fill="#FC446E"/>
<path d="M75.535 29.2438C75.535 23.7542 71.5407 19.2053 66.3038 18.3137C64.8577 13.6244 60.4842 10.2197 55.3245 10.2197C50.1649 10.2197 45.7914 13.6244 44.3453 18.3137C39.1084 19.2053 35.1141 23.7472 35.1141 29.2438C35.1141 32.2624 36.3285 35.0002 38.2871 37.0009V43.5084H72.369V37.0009C74.3276 35.0002 75.542 32.2624 75.542 29.2438H75.535Z" stroke="#FC446E" stroke-width="2" stroke-linecap="round" stroke-linejoin="round"/>
<path d="M58.8907 88.2888V95.4211" stroke="#FFABB2" stroke-linejoin="round"/>
</g>
<defs>
<clipPath id="clip0_1_198">
<rect width="75.0223" height="91.6667" fill="white" transform="translate(17.4167 9.16675)"/>
</clipPath>
</defs>
</svg>
