<svg width="111" height="110" viewBox="0 0 111 110" fill="none" xmlns="http://www.w3.org/2000/svg">
<g clip-path="url(#clip0_1_187)">
<path d="M94.3336 94.0515H16.2375" stroke="#FC446E" stroke-width="2" stroke-linecap="round" stroke-linejoin="round"/>
<path d="M33.7339 94.0514C31.7856 94.0514 30.2054 92.4769 30.2054 90.5355V20.4644C30.2054 18.523 31.7856 16.9485 33.7339 16.9485H76.8372C78.7855 16.9485 80.3657 18.523 80.3657 20.4644" stroke="#FC446E" stroke-width="2" stroke-linecap="round" stroke-linejoin="round"/>
<path d="M76.8372 94.0514C78.7855 94.0514 80.3657 92.4768 80.3657 90.5355V20.4644" stroke="#FC446E" stroke-width="2" stroke-linecap="round" stroke-linejoin="round"/>
<path d="M30.9225 24.0876H79.6486" stroke="#FC446E" stroke-width="2" stroke-linecap="round" stroke-linejoin="round"/>
<path d="M30.9225 86.9121H80.3657" stroke="#FC446E" stroke-width="2" stroke-linecap="round" stroke-linejoin="round"/>
<path d="M63.5229 45.4234C61.1368 43.0457 57.2656 43.0457 54.8731 45.4234C52.4869 43.0457 48.6157 43.0457 46.2232 45.4234C43.8371 47.801 43.8371 51.6584 46.2232 54.0424L54.8731 62.6614L63.5229 54.0424C65.9091 51.6647 65.9091 47.8074 63.5229 45.4234Z" stroke="#FC446E" stroke-width="2" stroke-linecap="round" stroke-linejoin="round"/>
</g>
<defs>
<clipPath id="clip0_1_187">
<rect width="80" height="79" fill="white" transform="translate(15.2856 16)"/>
</clipPath>
</defs>
</svg>
