<svg width="870" height="100" viewBox="0 0 870 100" fill="none" xmlns="http://www.w3.org/2000/svg">
<path d="M44.6144 79H31C33.1927 72.8584 35.2704 67.1846 37.2374 61.9743C39.2045 56.7661 41.1272 51.8567 43.0102 47.2506C44.8932 42.6444 46.7473 38.2721 48.575 34.1315C50.4004 29.9931 52.2989 25.9478 54.2659 22H66.6943C68.6082 25.9478 70.4934 29.9931 72.352 34.1315C74.2084 38.2721 76.0803 42.6444 77.9677 47.2506C79.8528 51.8567 81.7801 56.7639 83.7515 61.9743C85.7208 67.1846 87.8028 72.8606 90 79H75.9586C75.3103 77.0185 74.6133 74.985 73.8677 72.8974C73.122 70.8098 72.3786 68.7309 71.6395 66.6606H48.8936C48.159 68.7395 47.42 70.8228 46.6832 72.9126C45.9442 75.0023 45.256 77.0315 44.6188 78.9978L44.6144 79Z" fill="#4F2B4D"/>
<path d="M67.5421 44.4071C65.5982 42.531 62.4462 42.531 60.5 44.4071C58.5561 42.531 55.4041 42.531 53.4579 44.4071C51.514 46.2832 51.514 49.3252 53.4579 51.2035L60.5 58L67.5421 51.2035C69.486 49.3274 69.486 46.2854 67.5421 44.4071Z" fill="#FC446E"/>
<path d="M0 78.9978V22H45L41.0564 32.7749H13.2436V44.7021H36.3863L31.9733 55.4771H13.2436V79H0V78.9978Z" fill="#4F2B4D"/>
<path d="M99.2614 79C96.9455 74.2135 94.6626 69.2452 92.4107 64.0948C90.1589 58.9467 88.0197 53.8527 85.9932 48.8128C83.9667 43.773 82.1038 38.9497 80.4043 34.3408C78.7049 29.732 77.2353 25.6191 76 22.0022H90.4351C91.5246 25.3029 92.7334 28.857 94.066 32.6602C95.3985 36.4655 96.7576 40.2578 98.1388 44.0372C99.52 47.8165 100.846 51.4378 102.112 54.8988C103.378 58.3619 104.592 61.3507 105.752 63.8674C106.844 61.3659 108.039 58.3857 109.334 54.9226C110.629 51.4616 111.971 47.8425 113.352 44.061C114.733 40.2817 116.09 36.4893 117.422 32.684C118.755 28.8808 119.968 25.318 121.062 22H135C133.696 25.6364 132.198 29.7536 130.503 34.3517C128.808 38.9519 126.954 43.773 124.938 48.8172C122.925 53.8635 120.799 58.9618 118.563 64.1165C116.326 69.2711 114.052 74.2309 111.747 78.9978H99.2614V79Z" fill="#4F2B4D"/>
<path d="M267.972 72.5989C267.937 72.5647 267.909 72.5237 267.891 72.4786C267.872 72.4334 267.863 72.385 267.865 72.3364V61.9583C267.862 61.907 267.87 61.8557 267.889 61.8075C267.907 61.7594 267.936 61.7155 267.972 61.6784C268.006 61.6432 268.048 61.6156 268.094 61.5975C268.14 61.5794 268.19 61.5712 268.24 61.5735H269.065C269.117 61.5709 269.17 61.5789 269.219 61.597C269.268 61.615 269.313 61.6428 269.35 61.6784C269.421 61.755 269.457 61.8555 269.453 61.9583V66.3318H275.029V61.9583C275.026 61.907 275.034 61.8557 275.053 61.8075C275.071 61.7594 275.1 61.7155 275.136 61.6784C275.171 61.6439 275.213 61.6167 275.259 61.5987C275.305 61.5806 275.354 61.572 275.404 61.5735H276.233C276.286 61.5702 276.338 61.578 276.387 61.5962C276.436 61.6144 276.48 61.6428 276.517 61.6792C276.554 61.7157 276.582 61.7595 276.6 61.8077C276.618 61.8558 276.625 61.9072 276.621 61.9583V72.3364C276.622 72.3858 276.612 72.4347 276.592 72.48C276.572 72.5252 276.543 72.5658 276.505 72.5989C276.469 72.6331 276.427 72.6601 276.38 72.6781C276.333 72.6961 276.284 72.7048 276.233 72.7038H275.404C275.354 72.705 275.305 72.6963 275.259 72.6783C275.213 72.6603 275.171 72.6332 275.136 72.5989C275.101 72.5645 275.073 72.5236 275.055 72.4784C275.037 72.4333 275.028 72.385 275.029 72.3364V67.775H269.453V72.3364C269.454 72.3854 269.445 72.4342 269.426 72.4794C269.407 72.5247 269.378 72.5654 269.341 72.5989C269.267 72.668 269.168 72.7056 269.065 72.7038H268.24C268.19 72.7061 268.14 72.6979 268.094 72.6798C268.048 72.6617 268.006 72.6341 267.972 72.5989Z" fill="#2D2D2D"/>
<path d="M280.89 71.8772C280.217 71.1633 279.844 70.2257 279.847 69.2532V68.5709V67.8843C279.843 66.9099 280.22 65.9712 280.899 65.2602C281.669 64.6195 282.646 64.2678 283.656 64.2678C284.666 64.2678 285.643 64.6195 286.413 65.2602C287.094 65.97 287.471 66.9095 287.466 67.8843C287.466 68.0024 287.466 68.2298 287.466 68.5709C287.466 68.912 287.466 69.1351 287.466 69.2532C287.47 70.2261 287.097 71.1642 286.422 71.8772C285.646 72.5127 284.667 72.8609 283.656 72.8609C282.645 72.8609 281.666 72.5127 280.89 71.8772ZM285.271 71.0025C285.699 70.4869 285.925 69.8388 285.909 69.1744C285.909 69.0695 285.909 68.8639 285.909 68.5709C285.909 68.2779 285.909 68.0723 285.909 67.963C285.924 67.3001 285.698 66.6536 285.271 66.1393C284.836 65.7296 284.257 65.5007 283.654 65.5007C283.051 65.5007 282.471 65.7296 282.037 66.1393C281.604 66.6501 281.379 67.2994 281.403 67.963V68.5709V69.1744C281.378 69.8395 281.603 70.4904 282.037 71.0025C282.473 71.4092 283.052 71.636 283.654 71.636C284.256 71.636 284.835 71.4092 285.271 71.0025Z" fill="#2D2D2D"/>
<path d="M291.494 72.5026C291.053 72.3172 290.66 72.0378 290.343 71.6848C290.136 71.4783 290.002 71.2111 289.964 70.9238C289.961 70.8758 289.971 70.8279 289.992 70.7844C290.013 70.741 290.045 70.7032 290.084 70.6746C290.158 70.6204 290.246 70.5898 290.338 70.5871H291.066C291.124 70.5892 291.18 70.605 291.231 70.6332C291.281 70.6614 291.324 70.7011 291.355 70.7489C291.594 71.0261 291.879 71.2613 292.199 71.4443C292.575 71.6321 292.995 71.7211 293.416 71.7023C293.895 71.7229 294.37 71.6091 294.786 71.3743C294.945 71.2874 295.077 71.1606 295.17 71.0069C295.262 70.8532 295.312 70.6781 295.312 70.4996C295.322 70.2703 295.244 70.0458 295.094 69.8698C294.886 69.6661 294.63 69.5159 294.349 69.4325C293.835 69.2674 293.312 69.1316 292.783 69.0258C292.046 68.9192 291.354 68.6167 290.78 68.1511C290.583 67.9578 290.429 67.7267 290.328 67.4723C290.227 67.2179 290.18 66.9458 290.191 66.6729C290.193 66.2622 290.32 65.8615 290.557 65.5227C290.826 65.1427 291.194 64.8406 291.623 64.648C292.154 64.4082 292.734 64.2914 293.318 64.3069C293.931 64.2883 294.541 64.4033 295.103 64.6436C295.517 64.8104 295.888 65.0677 296.187 65.3958C296.386 65.6042 296.514 65.8689 296.552 66.1524C296.553 66.1977 296.544 66.2427 296.526 66.2842C296.507 66.3257 296.48 66.3628 296.445 66.393C296.377 66.453 296.287 66.4857 296.195 66.4848H295.513C295.45 66.4852 295.388 66.4711 295.331 66.4438C295.275 66.4165 295.225 66.3766 295.187 66.3274C295.049 66.162 294.9 66.0057 294.741 65.8594C294.584 65.7284 294.402 65.6289 294.206 65.5664C293.919 65.4713 293.617 65.4284 293.314 65.4396C292.888 65.4117 292.465 65.5257 292.114 65.7632C291.977 65.8646 291.867 65.9973 291.794 66.1497C291.721 66.3021 291.687 66.4697 291.695 66.6379C291.689 66.8401 291.751 67.0386 291.873 67.2021C292.057 67.406 292.295 67.5571 292.56 67.6394C293.045 67.8049 293.542 67.9378 294.045 68.0374C294.841 68.1373 295.595 68.4421 296.231 68.9208C296.441 69.1154 296.606 69.3512 296.716 69.6128C296.825 69.8743 296.878 70.1556 296.869 70.4384C296.874 70.8831 296.731 71.3173 296.463 71.6761C296.161 72.0744 295.747 72.3783 295.272 72.5507C294.675 72.7776 294.038 72.8861 293.399 72.87C292.744 72.8879 292.093 72.7624 291.494 72.5026Z" fill="#2D2D2D"/>
<path d="M299.844 75.6209C299.81 75.5863 299.783 75.5452 299.765 75.5001C299.748 75.4549 299.74 75.4068 299.742 75.3585V64.8011C299.74 64.7528 299.748 64.7046 299.765 64.6595C299.783 64.6143 299.81 64.5732 299.844 64.5387C299.917 64.4721 300.013 64.436 300.112 64.4381H300.857C300.906 64.4356 300.956 64.4433 301.002 64.4606C301.049 64.4779 301.091 64.5045 301.126 64.5386C301.161 64.5728 301.189 64.6137 301.207 64.6589C301.225 64.7041 301.234 64.7525 301.232 64.8011V65.5008C301.549 65.1321 301.941 64.8328 302.383 64.622C302.825 64.4113 303.308 64.2939 303.799 64.2774C304.291 64.2609 304.78 64.3457 305.236 64.5263C305.692 64.7069 306.104 64.9793 306.446 65.3259C307.041 66.1064 307.361 67.0546 307.361 68.0286C307.361 68.1467 307.361 68.326 307.361 68.5709C307.361 68.8158 307.361 69.0083 307.361 69.1089C307.358 70.0811 307.034 71.0264 306.437 71.8029C306.127 72.1625 305.735 72.4456 305.292 72.6294C304.85 72.8132 304.37 72.8926 303.89 72.8613C303.387 72.8851 302.884 72.7889 302.427 72.581C301.969 72.373 301.57 72.0595 301.263 71.6673V75.3585C301.267 75.4552 301.231 75.5495 301.165 75.6209C301.132 75.6549 301.091 75.6814 301.047 75.6988C301.002 75.7162 300.954 75.7239 300.906 75.7215H300.112C300.013 75.7236 299.917 75.6874 299.844 75.6209ZM305.229 70.8757C305.606 70.3317 305.807 69.6882 305.804 69.0301C305.804 68.9252 305.804 68.7721 305.804 68.5928C305.804 66.5898 305.047 65.5883 303.533 65.5883C303.219 65.5679 302.905 65.6215 302.616 65.7448C302.327 65.8681 302.073 66.0573 301.874 66.2968C301.495 66.796 301.281 67.3976 301.263 68.0199V68.6234V69.2444C301.275 69.8432 301.492 70.4207 301.878 70.8845C302.083 71.1196 302.341 71.305 302.631 71.4264C302.921 71.5478 303.236 71.6018 303.551 71.5842C303.869 71.609 304.187 71.5574 304.48 71.4339C304.772 71.3104 305.029 71.1188 305.229 70.8757Z" fill="#2D2D2D"/>
<path d="M310.336 62.798C310.3 62.7643 310.272 62.7234 310.254 62.6782C310.235 62.6329 310.227 62.5843 310.229 62.5356V61.6609C310.227 61.5603 310.266 61.4629 310.336 61.3898C310.37 61.354 310.412 61.3257 310.458 61.3069C310.504 61.288 310.554 61.279 310.604 61.2804H311.625C311.676 61.28 311.726 61.2894 311.773 61.3082C311.819 61.3269 311.862 61.3547 311.897 61.3898C311.935 61.4248 311.964 61.467 311.984 61.5136C312.004 61.5602 312.014 61.6104 312.013 61.6609V62.5356C312.015 62.585 312.006 62.6342 311.986 62.6796C311.966 62.725 311.936 62.7655 311.897 62.798C311.862 62.8325 311.819 62.8595 311.772 62.8776C311.726 62.8956 311.676 62.9042 311.625 62.903H310.604C310.554 62.9052 310.505 62.897 310.458 62.8789C310.412 62.8608 310.371 62.8332 310.336 62.798ZM310.466 72.6076C310.43 72.5734 310.403 72.5324 310.384 72.4873C310.366 72.4421 310.357 72.3937 310.359 72.3451V64.801C310.358 64.7542 310.366 64.7077 310.384 64.6641C310.402 64.6206 310.428 64.5809 310.461 64.5474C310.533 64.4808 310.63 64.4447 310.729 64.4468H311.505C311.604 64.4447 311.7 64.4808 311.773 64.5474C311.808 64.5816 311.836 64.6225 311.854 64.6676C311.872 64.7128 311.881 64.7612 311.88 64.8098V72.3451C311.881 72.3937 311.872 72.442 311.854 72.4871C311.835 72.5323 311.808 72.5732 311.773 72.6076C311.738 72.6419 311.696 72.669 311.65 72.687C311.604 72.705 311.554 72.7137 311.505 72.7125H310.729C310.679 72.7128 310.629 72.7029 310.583 72.6833C310.537 72.6637 310.495 72.635 310.461 72.5988L310.466 72.6076Z" fill="#2D2D2D"/>
<path d="M315.984 69.9047V65.7062H314.721C314.672 65.7087 314.622 65.701 314.576 65.6837C314.53 65.6664 314.487 65.6398 314.452 65.6057C314.417 65.5716 314.389 65.5306 314.371 65.4854C314.353 65.4402 314.345 65.3918 314.346 65.3433V64.801C314.349 64.7522 314.362 64.7045 314.384 64.6609C314.406 64.6172 314.438 64.5786 314.476 64.5473C314.548 64.4807 314.644 64.4446 314.743 64.4467H316.006V61.7833C316.004 61.7347 316.013 61.6862 316.031 61.641C316.05 61.5958 316.077 61.5549 316.113 61.5209C316.148 61.4863 316.19 61.4592 316.236 61.4411C316.282 61.4231 316.331 61.4145 316.381 61.4159H317.143C317.193 61.4145 317.242 61.4231 317.288 61.4411C317.334 61.4592 317.376 61.4863 317.411 61.5209C317.445 61.5558 317.472 61.5969 317.489 61.642C317.507 61.687 317.515 61.7351 317.514 61.7833V64.438H319.525C319.625 64.4359 319.721 64.472 319.793 64.5385C319.828 64.5727 319.856 64.6137 319.874 64.6588C319.893 64.704 319.902 64.7524 319.9 64.801V65.3433C319.902 65.3918 319.894 65.4402 319.875 65.4854C319.857 65.5306 319.83 65.5716 319.794 65.6057C319.759 65.6398 319.717 65.6664 319.671 65.6837C319.624 65.701 319.575 65.7087 319.525 65.7062H317.514V69.7954C317.487 70.2125 317.583 70.6284 317.79 70.9937C317.891 71.1306 318.026 71.2398 318.182 71.311C318.338 71.3822 318.511 71.413 318.682 71.4004H319.668C319.718 71.3976 319.767 71.4051 319.813 71.4224C319.859 71.4398 319.901 71.4666 319.936 71.501C319.971 71.5352 319.999 71.5761 320.017 71.6213C320.036 71.6664 320.044 71.7148 320.043 71.7634V72.3363C320.044 72.3849 320.036 72.4333 320.017 72.4785C319.999 72.5236 319.971 72.5645 319.936 72.5987C319.901 72.634 319.86 72.6616 319.814 72.6797C319.767 72.6978 319.718 72.706 319.668 72.7037H318.553C316.843 72.7037 315.987 71.7707 315.984 69.9047Z" fill="#2D2D2D"/>
<path d="M323.442 72.542C323.011 72.3489 322.64 72.047 322.367 71.6673C322.105 71.3143 321.966 70.888 321.97 70.4515C321.965 70.115 322.044 69.7824 322.2 69.4823C322.355 69.1822 322.582 68.9235 322.862 68.7284C323.567 68.237 324.392 67.9354 325.253 67.8537L327.666 67.5213V67.0577C327.666 65.9775 327.037 65.4396 325.771 65.4396C325.36 65.4216 324.953 65.5235 324.602 65.7326C324.322 65.9054 324.089 66.1426 323.924 66.4236C323.901 66.5015 323.858 66.5722 323.799 66.6291C323.743 66.6758 323.671 66.6993 323.598 66.6947H322.902C322.808 66.6947 322.717 66.6579 322.65 66.5922C322.583 66.5266 322.545 66.4376 322.545 66.3448C322.578 66.0253 322.703 65.7216 322.907 65.4702C323.19 65.1062 323.561 64.8163 323.986 64.6261C324.545 64.3729 325.155 64.2502 325.771 64.2675C326.981 64.2675 327.851 64.5459 328.38 65.1028C328.92 65.6598 329.213 66.4033 329.196 67.1714V72.3233C329.198 72.3719 329.189 72.4203 329.171 72.4654C329.152 72.5106 329.125 72.5515 329.089 72.5857C329.055 72.6209 329.013 72.6485 328.967 72.6666C328.921 72.6847 328.871 72.6929 328.822 72.6907H328.077C328.027 72.6926 327.978 72.6843 327.932 72.6665C327.886 72.6486 327.844 72.6215 327.809 72.587C327.774 72.5524 327.747 72.5111 327.729 72.4657C327.712 72.4203 327.704 72.3718 327.706 72.3233V71.641C327.438 72.0116 327.081 72.3119 326.667 72.5157C326.126 72.767 325.531 72.887 324.932 72.8656C324.416 72.8712 323.907 72.7605 323.442 72.542ZM326.984 70.9938C327.222 70.7292 327.404 70.4209 327.519 70.0868C327.635 69.7528 327.682 69.3996 327.657 69.0476V68.6103L325.779 68.8814C325.17 68.9373 324.579 69.1176 324.044 69.4106C323.871 69.5048 323.725 69.642 323.623 69.8086C323.52 69.9751 323.464 70.1651 323.46 70.3596C323.452 70.5542 323.498 70.7472 323.592 70.9186C323.686 71.0901 323.825 71.2338 323.995 71.3349C324.372 71.5682 324.812 71.6869 325.258 71.676C325.575 71.6842 325.891 71.6279 326.185 71.5104C326.479 71.393 326.745 71.2171 326.966 70.9938H326.984Z" fill="#2D2D2D"/>
<path d="M332.613 72.599C332.578 72.5648 332.55 72.5238 332.532 72.4787C332.514 72.4335 332.505 72.3851 332.506 72.3365V61.7835C332.505 61.7349 332.513 61.6864 332.532 61.6412C332.55 61.5961 332.578 61.5551 332.613 61.5211C332.648 61.4859 332.689 61.4583 332.736 61.4402C332.782 61.4221 332.831 61.4139 332.881 61.4161H333.657C333.707 61.4139 333.756 61.4221 333.803 61.4402C333.849 61.4583 333.89 61.4859 333.925 61.5211C333.96 61.5551 333.988 61.5961 334.007 61.6412C334.025 61.6864 334.034 61.7349 334.032 61.7835V72.3365C334.033 72.3851 334.025 72.4335 334.006 72.4787C333.988 72.5238 333.96 72.5648 333.925 72.599C333.89 72.6342 333.849 72.6618 333.803 72.6799C333.756 72.698 333.707 72.7062 333.657 72.7039H332.899C332.846 72.7088 332.793 72.7019 332.744 72.6837C332.694 72.6655 332.65 72.6365 332.613 72.599Z" fill="#2D2D2D"/>
<path d="M337.377 62.7981C337.342 62.764 337.315 62.723 337.297 62.6778C337.28 62.6325 337.272 62.5841 337.275 62.5357V61.661C337.271 61.5609 337.308 61.4635 337.377 61.3899C337.412 61.3547 337.454 61.3269 337.5 61.3081C337.546 61.2893 337.595 61.2799 337.645 61.2805H338.667C338.77 61.2804 338.869 61.3196 338.943 61.3899C338.98 61.4252 339.009 61.4675 339.028 61.5141C339.047 61.5608 339.056 61.6108 339.055 61.661V62.5357C339.057 62.5848 339.048 62.6338 339.029 62.6792C339.01 62.7246 338.98 62.7652 338.943 62.7981C338.869 62.8672 338.769 62.9049 338.667 62.9031H337.645C337.596 62.9045 337.546 62.896 337.5 62.8779C337.454 62.8598 337.412 62.8327 337.377 62.7981ZM337.507 72.6077C337.472 72.5731 337.446 72.532 337.428 72.4869C337.41 72.4418 337.402 72.3936 337.404 72.3453V64.8011C337.402 64.7529 337.41 64.7047 337.428 64.6595C337.446 64.6144 337.472 64.5733 337.507 64.5387C337.579 64.4722 337.675 64.4361 337.775 64.4381H338.564C338.613 64.4356 338.663 64.4433 338.709 64.4607C338.755 64.478 338.797 64.5047 338.832 64.5389C338.866 64.5731 338.894 64.6141 338.911 64.6593C338.929 64.7045 338.937 64.7528 338.934 64.8011V72.3365C338.936 72.4338 338.9 72.528 338.832 72.5989C338.797 72.6335 338.755 72.6607 338.709 72.6787C338.663 72.6968 338.614 72.7053 338.564 72.7039H337.783C337.732 72.7066 337.681 72.6986 337.634 72.6805C337.586 72.6624 337.543 72.6346 337.507 72.5989V72.6077Z" fill="#2D2D2D"/>
<path d="M343.025 69.9047V65.7062H341.758C341.709 65.7088 341.659 65.7011 341.613 65.6837C341.567 65.6664 341.525 65.6397 341.491 65.6055C341.456 65.5713 341.428 65.5303 341.411 65.4851C341.393 65.4399 341.385 65.3916 341.388 65.3433V64.801C341.386 64.7527 341.394 64.7045 341.411 64.6593C341.429 64.6142 341.456 64.5731 341.49 64.5385C341.563 64.472 341.659 64.4359 341.758 64.438H343.025V61.7833C343.023 61.7351 343.032 61.687 343.049 61.642C343.067 61.5969 343.093 61.5558 343.128 61.5209C343.162 61.4863 343.204 61.4592 343.25 61.4411C343.296 61.4231 343.346 61.4145 343.395 61.4159H344.158C344.208 61.4145 344.257 61.4231 344.303 61.4411C344.349 61.4592 344.391 61.4863 344.426 61.5209C344.461 61.5549 344.489 61.5958 344.507 61.641C344.526 61.6862 344.534 61.7347 344.533 61.7833V64.438H346.54C346.59 64.4355 346.639 64.4432 346.685 64.4605C346.732 64.4778 346.774 64.5044 346.809 64.5385C346.844 64.5727 346.872 64.6136 346.89 64.6588C346.908 64.704 346.917 64.7524 346.915 64.801V65.3433C346.916 65.3919 346.907 65.4402 346.889 65.4854C346.871 65.5305 346.843 65.5715 346.808 65.6057C346.773 65.6401 346.731 65.6669 346.685 65.6842C346.639 65.7016 346.589 65.7091 346.54 65.7062H344.533V69.7954C344.504 70.2127 344.6 70.6293 344.809 70.9937C344.91 71.1306 345.045 71.2398 345.201 71.311C345.357 71.3822 345.53 71.413 345.701 71.4004H346.692C346.741 71.3984 346.79 71.4063 346.836 71.4236C346.882 71.4409 346.924 71.4672 346.959 71.501C347.027 71.5719 347.064 71.6662 347.062 71.7634V72.3363C347.064 72.4336 347.027 72.5278 346.959 72.5987C346.924 72.6333 346.883 72.6605 346.837 72.6785C346.791 72.6966 346.741 72.7051 346.692 72.7037H345.572C343.874 72.7037 343.025 71.7707 343.025 69.9047Z" fill="#2D2D2D"/>
<path d="M350.858 75.6253C350.828 75.5971 350.803 75.5633 350.786 75.5257C350.769 75.4882 350.76 75.4477 350.76 75.4066C350.766 75.3055 350.795 75.207 350.845 75.118L352.089 72.2097L348.993 65.0416C348.954 64.9552 348.927 64.864 348.913 64.7705C348.912 64.7259 348.92 64.6816 348.937 64.6402C348.953 64.5988 348.979 64.5613 349.011 64.5299C349.043 64.4997 349.081 64.4761 349.122 64.4603C349.164 64.4445 349.208 64.437 349.252 64.4381H350.051C350.135 64.439 350.218 64.465 350.287 64.5126C350.356 64.5602 350.409 64.6272 350.439 64.7049L352.901 70.4909L355.43 64.7049C355.464 64.6265 355.521 64.5595 355.593 64.5121C355.665 64.4648 355.749 64.439 355.836 64.4381H356.599C356.647 64.4368 356.695 64.446 356.739 64.4649C356.783 64.4838 356.822 64.512 356.853 64.5474C356.884 64.5761 356.909 64.6107 356.926 64.649C356.943 64.6874 356.952 64.7287 356.951 64.7705C356.934 64.869 356.908 64.9657 356.871 65.0591L352.268 75.4678C352.234 75.547 352.178 75.6149 352.106 75.6631C352.034 75.7113 351.949 75.7377 351.862 75.739H351.099C351.053 75.7387 351.007 75.7284 350.965 75.7087C350.924 75.689 350.887 75.6605 350.858 75.6253Z" fill="#2D2D2D"/>
<path d="M366.449 72.5988C366.413 72.5646 366.386 72.5237 366.367 72.4785C366.349 72.4334 366.34 72.385 366.341 72.3364V62.9904H363.219C363.169 62.9919 363.12 62.9833 363.074 62.9653C363.028 62.9472 362.986 62.92 362.951 62.8855C362.917 62.8506 362.891 62.8095 362.873 62.7644C362.855 62.7194 362.847 62.6713 362.849 62.6231V61.9583C362.847 61.8584 362.883 61.7615 362.951 61.6872C362.985 61.6506 363.026 61.6215 363.073 61.6019C363.119 61.5823 363.169 61.5726 363.219 61.5735H371.034C371.087 61.5703 371.139 61.578 371.188 61.5962C371.237 61.6144 371.282 61.6427 371.319 61.6791C371.356 61.7155 371.385 61.7592 371.404 61.8073C371.422 61.8555 371.43 61.9069 371.427 61.9583V62.6231C371.428 62.6724 371.418 62.7215 371.398 62.7668C371.378 62.8121 371.348 62.8526 371.311 62.8855C371.274 62.9201 371.231 62.9472 371.183 62.9652C371.136 62.9832 371.085 62.9918 371.034 62.9904H367.938V72.3364C367.94 72.3854 367.931 72.4341 367.912 72.4794C367.892 72.5246 367.863 72.5653 367.827 72.5988C367.752 72.6679 367.653 72.7056 367.55 72.7038H366.707C366.659 72.704 366.612 72.6949 366.567 72.6769C366.523 72.6588 366.482 72.6323 366.449 72.5988Z" fill="#2D2D2D"/>
<path d="M373.162 71.851C372.464 71.0959 372.073 70.1151 372.065 69.0957V68.5534V68.0286C372.086 67.0158 372.48 66.0448 373.175 65.2952C373.918 64.6232 374.897 64.2586 375.908 64.2773C376.919 64.296 377.883 64.6968 378.6 65.3958C379.298 66.2529 379.65 67.3315 379.59 68.4266V68.6977C379.592 68.7463 379.583 68.7947 379.564 68.8399C379.546 68.885 379.518 68.926 379.483 68.9602C379.411 69.0267 379.315 69.0628 379.215 69.0607H373.608V69.2051C373.624 69.8401 373.848 70.4534 374.246 70.9544C374.431 71.1871 374.669 71.3737 374.941 71.4991C375.213 71.6245 375.511 71.6851 375.812 71.676C376.239 71.6939 376.663 71.5923 377.034 71.383C377.308 71.2262 377.547 71.0182 377.739 70.7707C377.799 70.6831 377.873 70.6049 377.957 70.539C378.043 70.5065 378.134 70.4931 378.225 70.4996H379.024C379.111 70.4968 379.196 70.5247 379.264 70.5783C379.298 70.6052 379.324 70.6395 379.341 70.6783C379.358 70.717 379.365 70.7592 379.363 70.8014C379.318 71.1249 379.16 71.4233 378.916 71.6454C378.565 72.0108 378.14 72.2999 377.667 72.4939C377.087 72.743 376.459 72.8654 375.825 72.8525C375.335 72.8762 374.844 72.7994 374.386 72.6269C373.927 72.4545 373.511 72.1902 373.162 71.851ZM378.047 67.963V67.9149C378.076 67.2671 377.86 66.6314 377.44 66.1306C377.241 65.8989 376.992 65.7146 376.709 65.5918C376.427 65.4691 376.12 65.411 375.812 65.4221C375.507 65.4079 375.202 65.4629 374.922 65.5828C374.642 65.7026 374.394 65.884 374.197 66.1131C373.788 66.6191 373.579 67.2526 373.608 67.8974V67.9455L378.047 67.963Z" fill="#2D2D2D"/>
<path d="M383.194 71.8992C382.506 71.1662 382.132 70.2014 382.151 69.2052V68.571V67.9325C382.132 66.9363 382.506 65.9715 383.194 65.2385C383.558 64.9072 383.986 64.6512 384.453 64.4859C384.919 64.3206 385.415 64.2493 385.911 64.2763C386.598 64.2635 387.277 64.4135 387.892 64.7137C388.377 64.9421 388.793 65.2921 389.096 65.7283C389.352 66.0861 389.506 66.5042 389.542 66.9397C389.549 66.9867 389.543 67.0345 389.526 67.0788C389.509 67.1231 389.481 67.1625 389.444 67.1934C389.365 67.2551 389.268 67.289 389.167 67.2896H388.391C388.304 67.2965 388.217 67.2733 388.146 67.224C388.073 67.1525 388.018 67.0658 387.985 66.9704C387.852 66.5234 387.571 66.1325 387.187 65.8595C386.809 65.6291 386.369 65.5149 385.924 65.5315C385.629 65.5177 385.334 65.5652 385.059 65.6707C384.784 65.7762 384.535 65.9374 384.327 66.1438C383.89 66.6695 383.662 67.333 383.685 68.0112V68.5841V69.1265C383.659 69.8062 383.884 70.4722 384.318 71.0026C384.528 71.2084 384.779 71.3685 385.056 71.4725C385.332 71.5765 385.628 71.622 385.924 71.6062C386.369 71.6228 386.809 71.5085 387.187 71.2782C387.563 71.0101 387.838 70.627 387.967 70.1892C388.002 70.0919 388.057 70.0026 388.128 69.9268C388.198 69.8742 388.286 69.8492 388.373 69.8568H389.15C389.252 69.855 389.351 69.8927 389.426 69.9618C389.463 69.9945 389.491 70.0355 389.508 70.0812C389.525 70.1269 389.531 70.1759 389.524 70.2242C389.485 70.655 389.331 71.0682 389.078 71.4225C388.778 71.8625 388.364 72.2158 387.878 72.4459C387.263 72.7479 386.581 72.898 385.893 72.8832C385.399 72.906 384.905 72.8305 384.441 72.6614C383.977 72.4923 383.553 72.2331 383.194 71.8992Z" fill="#2D2D2D"/>
<path d="M392.54 72.599C392.505 72.5648 392.477 72.5238 392.458 72.4787C392.44 72.4335 392.431 72.3851 392.433 72.3365V61.7835C392.431 61.7349 392.44 61.6864 392.458 61.6412C392.476 61.5961 392.504 61.5551 392.54 61.5211C392.574 61.4859 392.616 61.4583 392.662 61.4402C392.708 61.4221 392.758 61.4139 392.807 61.4161H393.615C393.664 61.4147 393.714 61.4233 393.76 61.4413C393.806 61.4594 393.848 61.4865 393.882 61.5211C393.918 61.5551 393.946 61.5961 393.964 61.6412C393.983 61.6864 393.991 61.7349 393.99 61.7835V65.4878C394.283 65.11 394.66 64.802 395.091 64.5869C395.585 64.3659 396.124 64.2596 396.666 64.2764C397.119 64.2527 397.571 64.3284 397.99 64.4978C398.409 64.6673 398.784 64.9263 399.088 65.256C399.693 65.9882 400.001 66.913 399.954 67.8538V72.3365C399.956 72.4338 399.919 72.528 399.851 72.599C399.816 72.6335 399.774 72.6607 399.728 72.6787C399.682 72.6968 399.633 72.7054 399.583 72.7039H398.785C398.735 72.7051 398.686 72.6964 398.64 72.6784C398.594 72.6604 398.552 72.6333 398.517 72.599C398.482 72.5646 398.455 72.5237 398.436 72.4785C398.418 72.4334 398.409 72.3851 398.41 72.3365V67.9325C398.452 67.3018 398.253 66.6784 397.853 66.1832C397.646 65.9709 397.394 65.8056 397.115 65.6991C396.836 65.5925 396.537 65.5473 396.238 65.5665C395.937 65.5523 395.636 65.6006 395.355 65.7084C395.075 65.8162 394.821 65.981 394.61 66.1919C394.18 66.6741 393.962 67.3026 394.003 67.9413V72.3453C394.004 72.3939 393.995 72.4422 393.977 72.4873C393.958 72.5324 393.931 72.5734 393.896 72.6077C393.861 72.6421 393.819 72.6691 393.773 72.6871C393.727 72.7052 393.678 72.7139 393.628 72.7127H392.821C392.768 72.7158 392.716 72.7072 392.667 72.6875C392.618 72.6678 392.575 72.6375 392.54 72.599Z" fill="#2D2D2D"/>
<path d="M403.384 72.5988C403.349 72.5646 403.321 72.5236 403.303 72.4785C403.284 72.4333 403.275 72.385 403.277 72.3364V64.801C403.275 64.7528 403.283 64.7048 403.301 64.6599C403.319 64.615 403.346 64.5743 403.381 64.5402C403.416 64.5061 403.457 64.4794 403.503 64.4619C403.549 64.4443 403.598 64.4361 403.647 64.438H404.41C404.509 64.4359 404.605 64.472 404.678 64.5386C404.713 64.5728 404.741 64.6137 404.759 64.6588C404.777 64.704 404.786 64.7524 404.785 64.801V65.5007C405.08 65.1205 405.46 64.811 405.895 64.5954C406.394 64.3669 406.942 64.2575 407.492 64.2762C407.949 64.2486 408.406 64.3223 408.829 64.4919C409.252 64.6616 409.631 64.9227 409.937 65.2558C410.545 65.9864 410.855 66.912 410.807 67.8536V72.3364C410.808 72.3849 410.799 72.4332 410.781 72.4783C410.762 72.5235 410.735 72.5644 410.7 72.5988C410.665 72.6332 410.623 72.6602 410.577 72.6782C410.531 72.6962 410.482 72.7049 410.432 72.7037H409.62C409.571 72.7052 409.521 72.6966 409.475 72.6785C409.429 72.6605 409.387 72.6333 409.352 72.5988C409.285 72.5278 409.248 72.4336 409.25 72.3364V67.9323C409.29 67.301 409.09 66.6776 408.688 66.183C408.482 65.9708 408.231 65.8056 407.953 65.699C407.674 65.5924 407.376 65.5471 407.077 65.5663C406.777 65.5513 406.477 65.5993 406.197 65.7072C405.917 65.815 405.663 65.9802 405.454 66.1917C405.031 66.6771 404.817 67.3041 404.856 67.9411V72.3451C404.857 72.3937 404.848 72.442 404.83 72.4871C404.812 72.5322 404.784 72.5732 404.749 72.6075C404.714 72.6419 404.672 72.6689 404.626 72.687C404.58 72.705 404.531 72.7137 404.481 72.7125H403.647C403.598 72.713 403.548 72.7031 403.503 72.6835C403.458 72.6639 403.417 72.635 403.384 72.5988Z" fill="#2D2D2D"/>
<path d="M414.763 71.8773C414.087 71.165 413.712 70.2268 413.715 69.2533V68.571V67.8844C413.713 66.9096 414.092 65.9709 414.772 65.2604C415.541 64.6192 416.518 64.2671 417.527 64.2671C418.536 64.2671 419.513 64.6192 420.281 65.2604C420.962 65.9709 421.34 66.9096 421.339 67.8844C421.339 68.0025 421.339 68.2299 421.339 68.571C421.339 68.9122 421.339 69.1352 421.339 69.2533C421.342 70.2268 420.967 71.165 420.29 71.8773C419.516 72.5133 418.537 72.8618 417.527 72.8618C416.516 72.8618 415.538 72.5133 414.763 71.8773ZM419.139 71.0027C419.569 70.4876 419.796 69.8395 419.782 69.1746C419.782 69.0696 419.782 68.8641 419.782 68.571C419.782 68.278 419.782 68.0725 419.782 67.9631C419.795 67.2997 419.568 66.6533 419.139 66.1394C418.933 65.9238 418.682 65.7549 418.402 65.6447C418.122 65.5344 417.821 65.4853 417.52 65.5009C417.219 65.487 416.918 65.5368 416.637 65.647C416.357 65.7572 416.105 65.9251 415.896 66.1394C415.464 66.6502 415.238 67.2995 415.263 67.9631V68.571V69.1746C415.237 69.8396 415.463 70.4905 415.896 71.0027C416.105 71.2162 416.358 71.3833 416.638 71.4927C416.918 71.6021 417.219 71.6513 417.52 71.6368C417.821 71.653 418.122 71.6046 418.401 71.4951C418.681 71.3855 418.933 71.2175 419.139 71.0027Z" fill="#2D2D2D"/>
<path d="M424.475 72.5987C424.439 72.5645 424.412 72.5236 424.393 72.4785C424.375 72.4333 424.366 72.3849 424.368 72.3363V61.7833C424.366 61.7347 424.374 61.6862 424.393 61.641C424.411 61.5958 424.439 61.5549 424.475 61.5209C424.509 61.4863 424.551 61.4592 424.597 61.4411C424.643 61.4231 424.693 61.4145 424.742 61.4159H425.505C425.555 61.4145 425.604 61.4231 425.65 61.4411C425.696 61.4592 425.738 61.4863 425.773 61.5209C425.807 61.5558 425.833 61.5969 425.851 61.642C425.869 61.687 425.877 61.7351 425.875 61.7833V72.3363C425.877 72.4336 425.841 72.5278 425.773 72.5987C425.738 72.6333 425.696 72.6605 425.65 72.6785C425.604 72.6966 425.555 72.7051 425.505 72.7037H424.742C424.693 72.7051 424.643 72.6966 424.597 72.6785C424.551 72.6605 424.509 72.6333 424.475 72.5987Z" fill="#2D2D2D"/>
<path d="M429.952 71.8772C429.279 71.1633 428.906 70.2257 428.909 69.2532V68.5709V67.8843C428.905 66.9099 429.282 65.9712 429.961 65.2602C430.731 64.6195 431.708 64.2678 432.718 64.2678C433.728 64.2678 434.705 64.6195 435.475 65.2602C436.156 65.97 436.533 66.9095 436.528 67.8843C436.528 68.0024 436.528 68.2298 436.528 68.5709C436.528 68.912 436.528 69.1351 436.528 69.2532C436.532 70.2261 436.159 71.1642 435.484 71.8772C434.708 72.5127 433.729 72.8609 432.718 72.8609C431.707 72.8609 430.728 72.5127 429.952 71.8772ZM434.333 71.0025C434.761 70.4869 434.987 69.8388 434.971 69.1744C434.971 69.0695 434.971 68.8639 434.971 68.5709C434.971 68.2779 434.971 68.0723 434.971 67.963C434.986 67.3001 434.76 66.6536 434.333 66.1393C433.898 65.7296 433.319 65.5007 432.716 65.5007C432.113 65.5007 431.534 65.7296 431.099 66.1393C430.666 66.6501 430.441 67.2994 430.465 67.963V68.5709V69.1744C430.44 69.8395 430.665 70.4904 431.099 71.0025C431.535 71.4092 432.114 71.636 432.716 71.636C433.318 71.636 433.897 71.4092 434.333 71.0025Z" fill="#2D2D2D"/>
<path d="M440.859 75.7608C440.392 75.5371 439.994 75.1942 439.708 74.768C439.506 74.4671 439.378 74.1243 439.334 73.7665C439.329 73.7163 439.336 73.6656 439.354 73.6185C439.373 73.5714 439.402 73.5293 439.441 73.4954C439.511 73.4256 439.608 73.3863 439.708 73.386H440.484C440.572 73.3825 440.658 73.4071 440.73 73.456C440.807 73.5272 440.863 73.618 440.89 73.7184C441.024 74.0584 441.243 74.3594 441.528 74.5931C441.932 74.8725 442.423 75.004 442.916 74.9648C443.553 75.0215 444.189 74.8438 444.7 74.4663C445.079 74.1339 445.271 73.5391 445.271 72.7169V71.6323C444.984 71.9875 444.618 72.2733 444.2 72.4676C443.719 72.6863 443.192 72.7926 442.661 72.7781C442.176 72.8118 441.69 72.7323 441.243 72.546C440.795 72.3597 440.399 72.0721 440.087 71.7067C439.497 70.9153 439.184 69.9579 439.195 68.9776V68.5403V68.103C439.186 67.1243 439.499 66.1689 440.087 65.3783C440.395 65.0093 440.789 64.7179 441.235 64.5284C441.681 64.339 442.167 64.257 442.652 64.2894C443.166 64.2653 443.679 64.3642 444.145 64.5775C444.611 64.7909 445.017 65.1122 445.329 65.5139V64.8185C445.325 64.7184 445.362 64.621 445.431 64.5474C445.466 64.5116 445.507 64.4833 445.553 64.4645C445.599 64.4456 445.649 64.4366 445.699 64.438H446.444C446.495 64.4365 446.546 64.4454 446.594 64.4642C446.642 64.483 446.685 64.5114 446.721 64.5474C446.758 64.5825 446.787 64.6246 446.807 64.6712C446.827 64.7179 446.837 64.768 446.837 64.8185V72.5289C446.837 74.975 445.565 76.1981 443.023 76.1981C442.275 76.2348 441.531 76.0843 440.859 75.7608ZM444.637 70.7795C445.017 70.2885 445.232 69.6941 445.253 69.0782C445.253 68.982 445.253 68.7983 445.253 68.5228C445.253 68.2473 445.253 68.0855 445.253 67.9805C445.23 67.3711 445.017 66.7833 444.642 66.2967C444.442 66.0485 444.182 65.8522 443.887 65.7249C443.591 65.5976 443.269 65.5431 442.947 65.5664C442.631 65.5386 442.314 65.5879 442.023 65.7101C441.731 65.8322 441.476 66.0233 441.278 66.2661C440.906 66.8104 440.708 67.4518 440.712 68.1073V68.5447V68.982C440.711 69.6358 440.908 70.2751 441.278 70.8188C441.476 71.0622 441.731 71.2539 442.022 71.3768C442.313 71.4997 442.631 71.5499 442.947 71.523C443.269 71.5428 443.591 71.4855 443.886 71.356C444.18 71.2264 444.438 71.0286 444.637 70.7795Z" fill="#2D2D2D"/>
<path d="M451.445 75.6251C451.413 75.5977 451.388 75.5639 451.371 75.5262C451.354 75.4885 451.346 75.4477 451.346 75.4065C451.353 75.306 451.381 75.2078 451.427 75.1178L452.676 72.2095L449.58 65.0415C449.541 64.9551 449.514 64.8639 449.5 64.7703C449.498 64.7258 449.506 64.6814 449.523 64.64C449.54 64.5986 449.565 64.5611 449.598 64.5298C449.629 64.4992 449.667 64.4752 449.709 64.4595C449.75 64.4437 449.794 64.4363 449.839 64.438H450.633C450.718 64.4376 450.801 64.4631 450.87 64.5109C450.94 64.5586 450.992 64.6264 451.021 64.7047L453.488 70.4908L456.017 64.7047C456.051 64.6264 456.107 64.5594 456.179 64.512C456.251 64.4646 456.336 64.4389 456.423 64.438H457.186C457.23 64.4368 457.274 64.4444 457.315 64.4602C457.357 64.4759 457.395 64.4996 457.427 64.5298C457.458 64.5585 457.482 64.593 457.499 64.6314C457.516 64.6697 457.525 64.7111 457.525 64.7529C457.508 64.8514 457.481 64.9481 457.444 65.0415L452.841 75.4502C452.808 75.5294 452.751 75.5973 452.679 75.6455C452.607 75.6937 452.522 75.7201 452.435 75.7214H451.672C451.629 75.7214 451.587 75.7129 451.548 75.6963C451.509 75.6798 451.474 75.6556 451.445 75.6251Z" fill="#2D2D2D"/>
<path d="M464.956 72.5988C464.888 72.5278 464.852 72.4336 464.854 72.3364V61.9583C464.849 61.8554 464.886 61.7549 464.956 61.6784C464.991 61.6438 465.033 61.6166 465.079 61.5986C465.125 61.5805 465.174 61.5719 465.224 61.5734H469.346C470.384 61.5171 471.408 61.8275 472.232 62.4481C472.591 62.7657 472.872 63.159 473.053 63.5983C473.235 64.0377 473.312 64.5117 473.28 64.9847C473.312 65.455 473.234 65.9263 473.052 66.3628C472.871 66.7992 472.59 67.1894 472.232 67.5037C471.407 68.1257 470.381 68.4362 469.341 68.3784H466.469V72.3539C466.47 72.4028 466.461 72.4516 466.442 72.4968C466.422 72.5421 466.394 72.5828 466.357 72.6163C466.282 72.6854 466.183 72.723 466.08 72.7212H465.22C465.169 72.7198 465.12 72.7082 465.075 72.6872C465.029 72.6661 464.989 72.636 464.956 72.5988ZM469.265 67.027C469.906 67.0704 470.54 66.8839 471.05 66.5022C471.259 66.3088 471.422 66.0725 471.528 65.8103C471.634 65.548 471.679 65.2661 471.661 64.9847C471.68 64.6993 471.635 64.4133 471.529 64.1467C471.424 63.88 471.26 63.6392 471.05 63.4408C470.542 63.0555 469.906 62.8671 469.265 62.9117H466.464V67.027H469.265Z" fill="#2D2D2D"/>
<path d="M476.737 72.5419C476.306 72.348 475.933 72.0464 475.658 71.6672C475.398 71.3132 475.259 70.8876 475.261 70.4514C475.257 70.115 475.336 69.7827 475.492 69.4827C475.647 69.1827 475.874 68.9239 476.153 68.7283C476.859 68.2376 477.683 67.9361 478.544 67.8536L480.962 67.5212V67.0576C480.962 65.9789 480.33 65.4395 479.066 65.4395C478.655 65.4215 478.248 65.5235 477.897 65.7325C477.616 65.9052 477.382 66.1423 477.215 66.4235C477.194 66.5016 477.153 66.5727 477.094 66.629C477.038 66.6753 476.966 66.6988 476.893 66.6946H476.193C476.146 66.6947 476.1 66.6855 476.057 66.6674C476.014 66.6494 475.975 66.6229 475.943 66.5897C475.909 66.5583 475.882 66.5203 475.864 66.4782C475.845 66.436 475.836 66.3906 475.836 66.3448C475.872 66.0254 475.999 65.7224 476.202 65.4701C476.489 65.1066 476.865 64.8194 477.295 64.6348C477.853 64.381 478.464 64.2582 479.079 64.2761C480.293 64.2761 481.164 64.5546 481.693 65.1115C482.224 65.6743 482.509 66.4183 482.487 67.1845V72.3363C482.488 72.3849 482.48 72.4332 482.461 72.4783C482.443 72.5234 482.415 72.5644 482.38 72.5988C482.345 72.6331 482.303 72.6601 482.257 72.6782C482.211 72.6962 482.162 72.7049 482.113 72.7037H481.368C481.318 72.7049 481.269 72.6962 481.223 72.6782C481.177 72.6601 481.135 72.6331 481.1 72.5988C481.065 72.5644 481.037 72.5234 481.019 72.4783C481 72.4332 480.992 72.3849 480.993 72.3363V71.6541C480.726 72.0246 480.371 72.325 479.958 72.5288C479.416 72.7795 478.821 72.8995 478.223 72.8786C477.708 72.8795 477.2 72.7643 476.737 72.5419ZM480.279 70.9937C480.517 70.7291 480.699 70.4208 480.815 70.0868C480.93 69.7527 480.977 69.3995 480.953 69.0475V68.6102L479.07 68.8813C478.461 68.938 477.87 69.1182 477.335 69.4105C477.162 69.5049 477.017 69.6423 476.915 69.8089C476.814 69.9755 476.758 70.1654 476.755 70.3596C476.748 70.5541 476.793 70.7471 476.887 70.9186C476.982 71.09 477.121 71.2337 477.29 71.3348C477.668 71.5681 478.107 71.6868 478.553 71.6759C478.873 71.6866 479.192 71.6314 479.49 71.5139C479.787 71.3964 480.056 71.2192 480.279 70.9937Z" fill="#2D2D2D"/>
<path d="M485.891 72.5988C485.856 72.5646 485.828 72.5236 485.81 72.4785C485.791 72.4333 485.782 72.3849 485.784 72.3363V64.8185C485.782 64.7178 485.82 64.6205 485.891 64.5473C485.924 64.5108 485.966 64.4821 486.012 64.4632C486.058 64.4443 486.108 64.4357 486.159 64.438H486.903C486.955 64.4368 487.006 64.4458 487.053 64.4645C487.101 64.4832 487.144 64.5112 487.181 64.5467C487.217 64.5823 487.245 64.6247 487.265 64.6714C487.284 64.7181 487.293 64.7682 487.292 64.8185V65.5182C487.735 64.7951 488.492 64.4351 489.562 64.438H490.196C490.245 64.4355 490.294 64.4431 490.34 64.4605C490.386 64.4778 490.428 64.5045 490.463 64.5387C490.498 64.5729 490.525 64.6139 490.543 64.6591C490.561 64.7043 490.568 64.7526 490.566 64.801V65.4526C490.568 65.4996 490.56 65.5466 490.543 65.5904C490.525 65.6342 490.498 65.6737 490.463 65.7063C490.39 65.7716 490.294 65.8062 490.196 65.8025H489.223C488.971 65.7873 488.718 65.8234 488.481 65.9084C488.244 65.9935 488.027 66.1257 487.845 66.2967C487.672 66.478 487.539 66.6915 487.452 66.9244C487.366 67.1573 487.328 67.4049 487.341 67.6524V72.3276C487.342 72.3766 487.333 72.4253 487.314 72.4706C487.294 72.5158 487.266 72.5565 487.229 72.59C487.155 72.6591 487.055 72.6968 486.953 72.695H486.159C486.11 72.6984 486.06 72.6915 486.014 72.675C485.968 72.6584 485.926 72.6324 485.891 72.5988Z" fill="#2D2D2D"/>
<path d="M493.648 69.9047V65.7062H492.381C492.332 65.7083 492.283 65.7004 492.237 65.6831C492.191 65.6658 492.149 65.6394 492.114 65.6057C492.046 65.5347 492.009 65.4405 492.011 65.3433V64.801C492.008 64.7526 492.016 64.7043 492.034 64.6591C492.052 64.6139 492.079 64.5729 492.114 64.5387C492.149 64.5045 492.191 64.4778 492.237 64.4605C492.283 64.4431 492.332 64.4354 492.381 64.438H493.648V61.7833C493.647 61.7351 493.655 61.687 493.673 61.642C493.69 61.5969 493.717 61.5558 493.751 61.5209C493.786 61.4863 493.827 61.4592 493.873 61.4411C493.919 61.4231 493.969 61.4145 494.018 61.4159H494.781C494.831 61.4145 494.88 61.4231 494.926 61.4411C494.972 61.4592 495.014 61.4863 495.049 61.5209C495.084 61.5549 495.112 61.5958 495.131 61.641C495.149 61.6862 495.158 61.7347 495.156 61.7833V64.438H497.163C497.213 64.4355 497.262 64.4432 497.309 64.4605C497.355 64.4778 497.397 64.5044 497.432 64.5385C497.467 64.5727 497.495 64.6136 497.513 64.6588C497.531 64.704 497.54 64.7524 497.538 64.801V65.3433C497.539 65.3919 497.531 65.4402 497.512 65.4854C497.494 65.5305 497.466 65.5715 497.431 65.6057C497.396 65.6401 497.354 65.6669 497.308 65.6842C497.262 65.7016 497.213 65.7091 497.163 65.7062H495.138V69.7954C495.109 70.2127 495.205 70.6293 495.415 70.9937C495.516 71.1306 495.65 71.2398 495.807 71.311C495.963 71.3822 496.135 71.413 496.307 71.4004H497.297C497.346 71.3979 497.396 71.4056 497.442 71.4229C497.488 71.4403 497.53 71.4669 497.565 71.5012C497.6 71.5354 497.627 71.5764 497.644 71.6216C497.662 71.6668 497.67 71.7151 497.667 71.7634V72.3363C497.67 72.3849 497.662 72.4334 497.644 72.4788C497.627 72.5241 497.6 72.5654 497.565 72.6C497.53 72.6346 497.488 72.6616 497.442 72.6795C497.396 72.6973 497.347 72.7056 497.297 72.7037H496.209C494.502 72.7037 493.648 71.7707 493.648 69.9047Z" fill="#2D2D2D"/>
<path d="M500.335 72.5989C500.3 72.5647 500.272 72.5238 500.254 72.4786C500.235 72.4335 500.226 72.3851 500.228 72.3365V64.8011C500.226 64.7525 500.235 64.7042 500.254 64.659C500.272 64.6139 500.3 64.5729 500.335 64.5387C500.407 64.4722 500.503 64.436 500.603 64.4381H501.383C501.482 64.436 501.578 64.4722 501.651 64.5387C501.685 64.5733 501.712 64.6144 501.73 64.6595C501.747 64.7047 501.755 64.7528 501.753 64.8011V65.5009C502.051 65.1226 502.43 64.8135 502.864 64.5956C503.363 64.367 503.911 64.2576 504.461 64.2763C504.914 64.2523 505.368 64.3278 505.787 64.4973C506.207 64.6668 506.583 64.926 506.888 65.256C507.492 65.9882 507.8 66.913 507.753 67.8538V72.3365C507.755 72.4338 507.718 72.528 507.651 72.5989C507.616 72.6335 507.574 72.6606 507.528 72.6787C507.482 72.6968 507.433 72.7053 507.383 72.7039H506.571C506.522 72.7051 506.472 72.6964 506.426 72.6784C506.38 72.6603 506.338 72.6333 506.303 72.599C506.268 72.5646 506.241 72.5236 506.222 72.4785C506.204 72.4334 506.195 72.3851 506.196 72.3365V67.9325C506.238 67.3018 506.039 66.6783 505.639 66.1831C505.432 65.9708 505.18 65.8056 504.901 65.6991C504.622 65.5925 504.323 65.5473 504.024 65.5665C503.724 65.5515 503.425 65.5996 503.145 65.7075C502.866 65.8153 502.614 65.9805 502.405 66.1919C501.979 66.6756 501.763 67.3034 501.802 67.9412V72.3453C501.805 72.4425 501.768 72.5367 501.7 72.6077C501.665 72.6422 501.623 72.6694 501.577 72.6875C501.531 72.7055 501.482 72.7141 501.432 72.7126H500.62C500.567 72.7155 500.514 72.7068 500.465 72.6871C500.415 72.6675 500.371 72.6373 500.335 72.5989Z" fill="#2D2D2D"/>
<path d="M511.732 71.851C511.033 71.0965 510.644 70.115 510.639 69.0957V68.5534V68.0286C510.66 67.0158 511.055 66.0448 511.75 65.2952C512.493 64.6232 513.472 64.2586 514.483 64.2773C515.494 64.296 516.458 64.6968 517.174 65.3958C517.869 66.2543 518.22 67.3323 518.16 68.4266V68.6977C518.163 68.7461 518.155 68.7944 518.137 68.8396C518.12 68.8848 518.092 68.9258 518.058 68.96C518.023 68.9942 517.981 69.0209 517.935 69.0382C517.889 69.0556 517.839 69.0633 517.79 69.0607H512.178V69.2051C512.194 69.8409 512.419 70.4547 512.821 70.9544C513.004 71.187 513.242 71.3736 513.513 71.4991C513.784 71.6245 514.082 71.6851 514.382 71.676C514.811 71.694 515.236 71.5924 515.609 71.383C515.881 71.225 516.121 71.0172 516.314 70.7707C516.373 70.6821 516.447 70.6037 516.532 70.539C516.617 70.5065 516.709 70.4931 516.8 70.4996H517.594C517.682 70.4969 517.769 70.5248 517.839 70.5783C517.871 70.6063 517.896 70.6408 517.912 70.6794C517.928 70.718 517.935 70.7597 517.933 70.8014C517.89 71.1255 517.732 71.4244 517.487 71.6454C517.138 72.0117 516.714 72.301 516.242 72.4939C515.662 72.7426 515.033 72.865 514.4 72.8525C513.909 72.8765 513.418 72.7999 512.958 72.6275C512.499 72.455 512.081 72.1906 511.732 71.851ZM516.639 67.963V67.9149C516.669 67.2671 516.453 66.6314 516.033 66.1306C515.831 65.8964 515.578 65.7107 515.291 65.5878C515.005 65.465 514.694 65.4083 514.382 65.4221C514.077 65.408 513.774 65.463 513.494 65.5828C513.215 65.7027 512.968 65.8841 512.772 66.1131C512.36 66.6176 512.149 67.2518 512.178 67.8974V67.9455L516.639 67.963Z" fill="#2D2D2D"/>
<path d="M521.185 72.5989C521.149 72.5647 521.122 72.5238 521.103 72.4786C521.085 72.4335 521.076 72.3851 521.078 72.3365V64.8186C521.076 64.718 521.114 64.6207 521.185 64.5475C521.219 64.5117 521.26 64.4834 521.307 64.4646C521.353 64.4457 521.402 64.4367 521.452 64.4381H522.197C522.249 64.4368 522.3 64.4459 522.347 64.4647C522.395 64.4835 522.438 64.5117 522.474 64.5475C522.511 64.5826 522.54 64.6247 522.56 64.6713C522.58 64.7179 522.59 64.7681 522.59 64.8186V65.5184C523.033 64.7953 523.788 64.4352 524.856 64.4381H525.472C525.571 64.436 525.667 64.4722 525.739 64.5387C525.774 64.5729 525.802 64.6139 525.821 64.659C525.839 64.7041 525.848 64.7525 525.846 64.8011V65.4528C525.849 65.5002 525.84 65.5476 525.822 65.5915C525.803 65.6353 525.775 65.6746 525.739 65.7064C525.666 65.7718 525.57 65.8064 525.472 65.8026H524.499C524.25 65.7899 524.001 65.8272 523.767 65.9122C523.533 65.9971 523.319 66.128 523.139 66.2968C522.966 66.4782 522.833 66.6916 522.746 66.9245C522.66 67.1574 522.622 67.405 522.634 67.6526V72.3278C522.636 72.3768 522.627 72.4255 522.608 72.4707C522.588 72.516 522.559 72.5567 522.523 72.5902C522.448 72.6593 522.349 72.6969 522.246 72.6951H521.457C521.407 72.6983 521.357 72.6914 521.311 72.6749C521.264 72.6583 521.221 72.6325 521.185 72.5989Z" fill="#2D2D2D"/>
<path d="M230.002 63.0604L225.197 58.0747V38.8054L230.024 34.0734H250.932L260.955 24.2463H226.058L215.183 34.9087V62.2775L225.969 72.8524H260.946L251.155 63.0604H230.002Z" fill="#FFD028"/>
<path d="M443.473 26.3194C443.398 26.2467 443.309 26.1895 443.211 26.1512C443.113 26.1129 443.008 26.0943 442.902 26.0964H440.85C440.745 26.094 440.64 26.1126 440.542 26.1512C440.445 26.1897 440.356 26.2473 440.282 26.3206C440.207 26.3938 440.149 26.4811 440.11 26.5772C440.072 26.6732 440.053 26.776 440.056 26.8792L440.083 48.2652L427.504 26.7874C427.375 26.5686 427.184 26.3909 426.955 26.2757C426.734 26.1694 426.491 26.114 426.246 26.1139H423.819C423.676 26.1103 423.533 26.1356 423.401 26.1883C423.268 26.2409 423.148 26.3198 423.047 26.42C422.946 26.519 422.866 26.6371 422.812 26.7671C422.759 26.8971 422.732 27.0364 422.735 27.1766L422.771 53.7145C422.77 53.817 422.79 53.9187 422.83 54.0135C422.87 54.1082 422.929 54.1942 423.004 54.2663C423.078 54.3384 423.166 54.3952 423.263 54.4334C423.361 54.4716 423.464 54.4903 423.569 54.4886H425.621C425.726 54.4914 425.831 54.4726 425.929 54.4334C426.026 54.3942 426.114 54.3356 426.188 54.2612C426.263 54.189 426.322 54.1025 426.362 54.007C426.402 53.9114 426.422 53.8089 426.42 53.7057L426.388 32.3766L438.928 53.8063C439.054 54.0269 439.245 54.2051 439.476 54.318C439.698 54.4268 439.942 54.4823 440.19 54.4798H442.652C442.796 54.4828 442.938 54.4574 443.071 54.405C443.204 54.3527 443.324 54.2745 443.426 54.1752C443.527 54.0759 443.607 53.9576 443.66 53.8273C443.713 53.697 443.739 53.5575 443.736 53.4171L443.701 26.8617C443.701 26.7611 443.682 26.6612 443.643 26.5681C443.604 26.475 443.546 26.3904 443.473 26.3194Z" fill="#2D2D2D"/>
<path d="M488.001 38.5911C487.842 38.4364 487.654 38.3147 487.446 38.2336C487.238 38.1524 487.016 38.1133 486.792 38.1188L479.209 38.2062C479.103 38.2056 478.999 38.2258 478.902 38.2656C478.804 38.3054 478.716 38.3639 478.643 38.4378C478.569 38.5117 478.511 38.5993 478.473 38.6955C478.434 38.7917 478.416 38.8946 478.419 38.9978V40.8478C478.418 40.9512 478.439 41.0537 478.48 41.1491C478.52 41.2445 478.58 41.3309 478.655 41.4032C478.73 41.4766 478.819 41.534 478.917 41.5716C479.016 41.6093 479.121 41.6264 479.226 41.6219L484.789 41.5563L484.825 44.5171C484.842 45.6316 484.553 46.7301 483.986 47.6965C483.431 48.6587 482.634 49.4657 481.671 50.0407C480.706 50.6123 479.6 50.9148 478.473 50.9154C477.33 50.9314 476.207 50.628 475.234 50.0407C474.246 49.4728 473.421 48.6695 472.834 47.7053C472.256 46.7333 471.948 45.6293 471.942 44.504L471.826 35.1317C471.81 34.0035 472.099 32.8913 472.665 31.9085C473.22 30.9197 474.023 30.0859 474.998 29.4857C475.952 28.8912 477.056 28.5687 478.187 28.5541H478.299C480.144 28.5027 481.938 29.1513 483.308 30.3647C483.408 30.4686 483.528 30.5518 483.662 30.6097C483.795 30.6675 483.939 30.6987 484.084 30.7015C484.351 30.6896 484.606 30.5929 484.811 30.4259C485.382 29.8574 485.766 29.4551 485.962 29.232C486.123 29.0461 486.211 28.8107 486.212 28.5672C486.218 28.4475 486.196 28.3281 486.147 28.2181C486.098 28.1082 486.024 28.0107 485.931 27.9331C484.928 26.9762 483.734 26.2319 482.425 25.7464C481.045 25.2394 479.58 24.9917 478.107 25.016C476.306 25.0275 474.543 25.5172 473.004 26.433C471.472 27.3369 470.202 28.6108 469.315 30.1329C468.412 31.6627 467.949 33.4039 467.976 35.1711L468.088 44.5433C468.099 46.3085 468.598 48.0377 469.533 49.5465C470.462 51.0583 471.775 52.3088 473.343 53.1764C474.865 54.0404 476.593 54.4932 478.352 54.4884H478.477C480.277 54.477 482.041 53.9873 483.58 53.0715C485.11 52.1704 486.374 50.8936 487.247 49.3672C488.132 47.8333 488.583 46.0955 488.554 44.3334L488.496 39.7894C488.502 39.567 488.461 39.3458 488.376 39.1397C488.291 38.9335 488.163 38.7467 488.001 38.5911Z" fill="#2D2D2D"/>
<path d="M507.236 51.1604C507.164 51.0839 507.076 51.0239 506.978 50.9845C506.881 50.9452 506.775 50.9276 506.669 50.933H495.281V41.2284H502.659C502.764 41.229 502.868 41.2091 502.965 41.17C503.062 41.1308 503.151 41.0732 503.225 41.0004C503.299 40.9276 503.358 40.841 503.398 40.7458C503.438 40.6506 503.458 40.5485 503.457 40.4455V38.5431C503.459 38.4402 503.439 38.3381 503.399 38.2428C503.359 38.1475 503.3 38.061 503.226 37.9884C503.152 37.9159 503.063 37.8587 502.966 37.8202C502.868 37.7818 502.764 37.7629 502.659 37.7646H495.281V29.6082H506.674C506.779 29.6108 506.883 29.5923 506.98 29.554C507.078 29.5156 507.166 29.4582 507.24 29.3852C507.314 29.3111 507.372 29.2235 507.411 29.1275C507.45 29.0314 507.469 28.9288 507.468 28.8254V26.8486C507.471 26.7453 507.451 26.6426 507.411 26.5469C507.372 26.4513 507.312 26.3649 507.236 26.2932C507.161 26.217 507.071 26.1569 506.971 26.117C506.871 26.0771 506.764 26.0581 506.656 26.0614H493.149C492.925 26.0614 492.704 26.1046 492.497 26.1886C492.291 26.2727 492.103 26.3958 491.945 26.551C491.787 26.7062 491.662 26.8904 491.577 27.093C491.492 27.2957 491.448 27.5128 491.449 27.732V52.796C491.445 53.0182 491.487 53.2388 491.572 53.4448C491.656 53.6509 491.782 53.8383 491.942 53.996C492.102 54.1537 492.292 54.2785 492.501 54.3631C492.711 54.4477 492.935 54.4903 493.162 54.4886H506.669C506.774 54.4897 506.878 54.4703 506.976 54.4313C507.073 54.3923 507.161 54.3346 507.235 54.2616C507.309 54.1886 507.367 54.1018 507.407 54.0063C507.446 53.9109 507.465 53.8086 507.463 53.7057V51.7158C507.466 51.6129 507.447 51.5106 507.408 51.4151C507.369 51.3196 507.31 51.2329 507.236 51.1604Z" fill="#2D2D2D"/>
<path d="M527.425 52.9885L520.779 42.4923C522.576 42.0838 524.184 41.1025 525.351 39.7021C526.627 38.2267 527.316 36.3488 527.292 34.4146C527.297 33.3131 527.08 32.2214 526.652 31.203C526.223 30.1846 525.593 29.2599 524.797 28.4826C524.001 27.7053 523.055 27.0909 522.014 26.6753C520.974 26.2596 519.859 26.051 518.736 26.0614H511.598C511.375 26.0602 511.153 26.1026 510.947 26.1859C510.74 26.2692 510.552 26.3919 510.394 26.5469C510.236 26.7018 510.111 26.886 510.026 27.0887C509.941 27.2913 509.898 27.5085 509.899 27.7277V53.6795C509.893 53.7853 509.91 53.8911 509.948 53.9903C509.986 54.0895 510.045 54.1799 510.12 54.2558C510.196 54.3318 510.286 54.3917 510.386 54.4317C510.486 54.4718 510.594 54.4911 510.702 54.4886H512.932C513.037 54.4892 513.141 54.4693 513.238 54.4302C513.336 54.391 513.424 54.3334 513.498 54.2606C513.572 54.1878 513.631 54.1012 513.671 54.006C513.711 53.9108 513.731 53.8087 513.731 53.7057V42.7372H516.55L523.687 54.0075C523.763 54.1529 523.879 54.2747 524.021 54.3589C524.164 54.4432 524.328 54.4866 524.495 54.4842H526.591C526.851 54.4892 527.103 54.397 527.296 54.2262C527.394 54.14 527.471 54.0338 527.521 53.9151C527.572 53.7964 527.596 53.6682 527.59 53.5395C527.6 53.3429 527.542 53.1487 527.425 52.9885ZM523.411 34.4452C523.428 35.0725 523.314 35.6966 523.075 36.2789C522.837 36.8612 522.479 37.3892 522.023 37.8303C521.558 38.2781 521.005 38.6288 520.398 38.8611C519.791 39.0934 519.142 39.2024 518.49 39.1816H513.708V29.5995H518.495C519.144 29.58 519.79 29.6906 520.393 29.9245C520.997 30.1584 521.546 30.5106 522.005 30.9596C522.466 31.4177 522.827 31.963 523.067 32.5622C523.306 33.1614 523.418 33.8021 523.397 34.4452H523.411Z" fill="#2D2D2D"/>
<path d="M456.664 25.414H449.91H449.687C449.109 25.4265 448.558 25.6588 448.151 26.0619C447.744 26.465 447.512 27.0074 447.506 27.5745V53.7931C447.506 53.9787 447.581 54.1567 447.715 54.2879C447.849 54.4191 448.03 54.4928 448.219 54.4928H450.45C450.639 54.4928 450.821 54.4191 450.954 54.2879C451.088 54.1567 451.164 53.9787 451.164 53.7931V42.2429H461.303V53.78C461.303 53.9656 461.378 54.1435 461.512 54.2748C461.646 54.406 461.827 54.4797 462.017 54.4797H464.604C464.793 54.4797 464.975 54.406 465.109 54.2748C465.242 54.1435 465.318 53.9656 465.318 53.78V33.7585C465.296 31.5276 464.373 29.396 462.751 27.8316C461.128 26.2672 458.939 25.3977 456.664 25.414ZM461.303 33.7585V38.7136H451.164V29.2845H456.664C457.884 29.2752 459.058 29.7412 459.928 30.5801C460.798 31.419 461.292 32.5622 461.303 33.7585Z" fill="#2D2D2D"/>
<path d="M410.138 25.414H403.388H403.165C402.586 25.4254 402.034 25.6572 401.626 26.0604C401.218 26.4636 400.986 27.0066 400.98 27.5745V53.7931C400.98 53.9787 401.055 54.1567 401.189 54.2879C401.323 54.4191 401.504 54.4928 401.693 54.4928H403.924C404.113 54.4928 404.295 54.4191 404.428 54.2879C404.562 54.1567 404.637 53.9787 404.637 53.7931V42.2429H414.777V53.78C414.778 53.966 414.854 54.1439 414.989 54.275C415.123 54.4061 415.305 54.4797 415.495 54.4797H418.078C418.172 54.4797 418.264 54.4616 418.351 54.4265C418.438 54.3913 418.516 54.3397 418.583 54.2748C418.649 54.2098 418.701 54.1327 418.737 54.0478C418.773 53.9629 418.792 53.8719 418.792 53.78V33.7585C418.77 31.5276 417.847 29.396 416.225 27.8316C414.602 26.2672 412.413 25.3977 410.138 25.414ZM414.777 33.7585V38.7136H404.637V29.2845H410.138C411.358 29.2752 412.532 29.7412 413.402 30.5801C414.272 31.419 414.766 32.5622 414.777 33.7585Z" fill="#2D2D2D"/>
<path d="M272.683 29.0964C273.645 28.488 274.767 28.1673 275.912 28.1737C276.843 28.1523 277.769 28.3122 278.637 28.644C279.504 28.9758 280.296 29.4729 280.966 30.1067C281.061 30.2126 281.177 30.2988 281.306 30.3604C281.436 30.4219 281.577 30.4576 281.72 30.4654C281.864 30.4731 282.008 30.4527 282.143 30.4054C282.279 30.3581 282.403 30.2848 282.51 30.1898C282.684 30.0192 283.072 29.595 283.67 28.9259C283.837 28.738 283.93 28.4975 283.933 28.248C283.94 28.1259 283.919 28.0038 283.871 27.8909C283.823 27.778 283.75 27.6772 283.656 27.5964C282.65 26.6114 281.449 25.8376 280.128 25.3222C278.766 24.7948 277.314 24.529 275.85 24.5394C274.017 24.5296 272.218 25.0153 270.648 25.9432C269.075 26.8707 267.774 28.1838 266.874 29.7535C265.975 31.3231 265.508 33.0952 265.519 34.8956V44.6177C265.51 46.4197 265.98 48.193 266.882 49.7628C267.785 51.3325 269.089 52.6447 270.666 53.57C272.235 54.4979 274.035 54.9837 275.868 54.9739C277.326 54.982 278.772 54.7162 280.128 54.1911C281.442 53.6745 282.635 52.9007 283.634 51.9169C283.724 51.8335 283.796 51.7324 283.845 51.6202C283.893 51.508 283.917 51.3871 283.915 51.2653C283.919 51.1391 283.898 51.0133 283.852 50.8954C283.806 50.7774 283.736 50.6697 283.647 50.5786C283.054 49.9182 282.666 49.494 282.465 49.3016C282.247 49.1252 281.968 49.0373 281.686 49.056C281.404 49.0748 281.14 49.1986 280.948 49.4022C280.279 50.0367 279.487 50.5344 278.619 50.8663C277.752 51.1981 276.825 51.3575 275.894 51.3352C274.75 51.3411 273.628 51.0222 272.665 50.4168C271.689 49.7932 270.891 48.937 270.345 47.9283C269.774 46.9104 269.476 45.7665 269.48 44.6046V34.8956C269.476 33.7336 269.774 32.5897 270.345 31.5718C270.897 30.565 271.701 29.7129 272.683 29.0964Z" fill="#2D2D2D"/>
<path d="M300.545 25.9871C299.104 25.0682 297.422 24.5791 295.702 24.5791C293.983 24.5791 292.301 25.0682 290.86 25.9871C289.372 26.9278 288.157 28.2294 287.332 29.7657C286.467 31.356 286.021 33.1329 286.034 34.9351V44.6178C286.021 46.42 286.467 48.1969 287.332 49.7872C288.156 51.3242 289.371 52.6259 290.86 53.5658C292.301 54.4846 293.983 54.9738 295.702 54.9738C297.422 54.9738 299.104 54.4846 300.545 53.5658C302.032 52.6253 303.246 51.3236 304.069 49.7872C304.934 48.1969 305.38 46.42 305.367 44.6178V34.9351C305.38 33.1329 304.934 31.356 304.069 29.7657C303.246 28.2292 302.032 26.9275 300.545 25.9871ZM301.762 34.9351V44.6178C301.764 45.7705 301.481 46.9066 300.937 47.9285C300.419 48.9241 299.652 49.7744 298.707 50.3994C297.82 50.9976 296.768 51.3179 295.691 51.3179C294.615 51.3179 293.563 50.9976 292.676 50.3994C291.731 49.7744 290.963 48.9241 290.445 47.9285C289.902 46.9002 289.62 45.7584 289.625 44.6003V34.9351C289.62 33.7783 289.902 32.6377 290.445 31.6113C290.963 30.6145 291.731 29.7628 292.676 29.1359C293.563 28.5377 294.615 28.2175 295.691 28.2175C296.768 28.2175 297.82 28.5377 298.707 29.1359C299.653 29.761 300.421 30.6132 300.937 31.6113C301.485 32.6367 301.768 33.7777 301.762 34.9351Z" fill="#2D2D2D"/>
<path d="M327.559 25.1211H325.481C325.265 25.1231 325.055 25.1853 324.874 25.3004C324.679 25.4187 324.533 25.6019 324.464 25.8165L317.259 49.1399L310.064 25.8427C310.042 25.7277 309.995 25.6188 309.924 25.5242C309.854 25.4296 309.763 25.3517 309.658 25.2961C309.472 25.1831 309.257 25.1226 309.038 25.1211H306.964C306.844 25.1181 306.726 25.1387 306.615 25.1815C306.504 25.2243 306.402 25.2886 306.317 25.3704C306.236 25.4468 306.172 25.5386 306.128 25.64C306.084 25.7415 306.062 25.8507 306.063 25.9608C306.053 26.0824 306.07 26.2046 306.112 26.3194L314.846 53.7451C314.916 53.956 315.06 54.1358 315.252 54.2524C315.434 54.3681 315.646 54.4303 315.863 54.4317H318.66C318.879 54.4302 319.094 54.3697 319.28 54.2568C319.381 54.2054 319.47 54.1323 319.538 54.043C319.607 53.9537 319.655 53.8504 319.677 53.7407L328.407 26.3238C328.461 26.1862 328.48 26.0378 328.462 25.8915C328.444 25.7452 328.39 25.6053 328.304 25.4841C328.22 25.3688 328.107 25.2755 327.978 25.2123C327.848 25.149 327.704 25.1178 327.559 25.1211Z" fill="#2D2D2D"/>
<path d="M346.29 25.1212H332.346C332.116 25.1177 331.887 25.1605 331.675 25.247C331.462 25.3335 331.27 25.4619 331.11 25.6242C330.945 25.7821 330.814 25.9713 330.726 26.1803C330.638 26.3893 330.594 26.6138 330.597 26.84V52.7393C330.597 52.9646 330.641 53.1878 330.729 53.396C330.817 53.6043 330.945 53.7935 331.108 53.9528C331.27 54.1121 331.463 54.2384 331.676 54.3243C331.888 54.4103 332.116 54.4542 332.346 54.4537H346.29C346.402 54.4564 346.512 54.4362 346.615 54.3945C346.718 54.3527 346.811 54.2903 346.888 54.2112C346.965 54.1321 347.024 54.0381 347.062 53.9352C347.099 53.8324 347.115 53.7229 347.107 53.614V51.5978C347.109 51.4916 347.089 51.3861 347.048 51.2877C347.007 51.1892 346.947 51.0998 346.87 51.0249C346.794 50.9503 346.704 50.8917 346.604 50.8526C346.504 50.8135 346.398 50.7948 346.29 50.7975H334.518V40.7649H343.44C343.547 40.7661 343.654 40.7462 343.754 40.7064C343.853 40.6666 343.944 40.6076 344.02 40.5331C344.096 40.4585 344.156 40.3699 344.196 40.2722C344.237 40.1746 344.257 40.07 344.256 39.9646V38.0097C344.259 37.8019 344.178 37.6016 344.031 37.4519C343.884 37.3022 343.683 37.215 343.471 37.2093H334.549V28.7555H346.321C346.429 28.7579 346.537 28.7388 346.637 28.6995C346.737 28.6601 346.828 28.6012 346.904 28.5264C346.98 28.4516 347.04 28.3624 347.081 28.2643C347.121 28.1661 347.14 28.0609 347.138 27.9552V25.9215C347.14 25.8154 347.12 25.7099 347.079 25.6114C347.039 25.5129 346.978 25.4236 346.901 25.3486C346.822 25.2701 346.726 25.2092 346.621 25.17C346.516 25.1308 346.403 25.1141 346.29 25.1212Z" fill="#2D2D2D"/>
<path d="M360.868 42.0638C362.733 41.646 364.402 40.6321 365.614 39.1817C366.927 37.6567 367.637 35.7193 367.613 33.7237C367.619 32.2134 367.218 30.7282 366.451 29.4182C365.684 28.1083 364.579 27.0198 363.246 26.2627C361.891 25.4947 360.35 25.0975 358.785 25.1125H351.416C351.186 25.1107 350.957 25.1539 350.744 25.2394C350.531 25.3249 350.338 25.4512 350.175 25.6107C350.012 25.7702 349.884 25.9599 349.797 26.1687C349.709 26.3775 349.665 26.6012 349.667 26.8268V53.614C349.665 53.7198 349.684 53.825 349.724 53.9233C349.764 54.0217 349.823 54.1113 349.899 54.1869C349.975 54.2618 350.067 54.3206 350.167 54.3597C350.268 54.3988 350.375 54.4174 350.483 54.4143H352.772C352.879 54.4171 352.986 54.3983 353.086 54.3592C353.185 54.3201 353.276 54.2615 353.352 54.1869C353.428 54.112 353.489 54.0226 353.53 53.9241C353.57 53.8257 353.59 53.7202 353.588 53.614V42.3H356.546L363.893 53.9464C363.969 54.0968 364.087 54.2227 364.235 54.3087C364.382 54.3948 364.551 54.4376 364.722 54.4318H366.881C367.148 54.4388 367.406 54.3448 367.604 54.1694C367.704 54.0809 367.784 53.972 367.837 53.8505C367.89 53.7289 367.915 53.5975 367.912 53.4653C367.918 53.2765 367.861 53.0909 367.751 52.9361L360.868 42.0638ZM363.594 33.7543C363.612 34.4029 363.494 35.0483 363.247 35.6502C363 36.2521 362.629 36.7977 362.157 37.2531C361.678 37.7128 361.109 38.0729 360.484 38.3119C359.859 38.5509 359.192 38.6638 358.522 38.6438H353.588V28.7555H358.535C359.211 28.7326 359.885 28.847 360.514 29.0915C361.143 29.3361 361.713 29.7055 362.19 30.1766C362.666 30.6477 363.038 31.2102 363.282 31.829C363.526 32.4477 363.636 33.1091 363.607 33.7718L363.594 33.7543Z" fill="#2D2D2D"/>
<path d="M395.85 25.2567H392.923C392.762 25.2517 392.604 25.2999 392.474 25.3934C392.343 25.4869 392.249 25.6205 392.205 25.7728L383.984 47.1456L375.852 25.9783C375.832 25.8632 375.785 25.7541 375.716 25.6593C375.646 25.5646 375.555 25.4867 375.45 25.4316C375.263 25.3216 375.049 25.2614 374.83 25.2567H371.864C371.698 25.2624 371.54 25.326 371.418 25.436C371.268 25.5636 371.173 25.7415 371.15 25.9346L371.257 53.5701C371.238 53.6924 371.246 53.8172 371.28 53.9363C371.314 54.0554 371.373 54.1661 371.454 54.2611C371.538 54.3628 371.645 54.4438 371.766 54.4978C371.888 54.5517 372.021 54.577 372.154 54.5717H374.148C374.407 54.5764 374.66 54.4912 374.862 54.3311C374.966 54.2466 375.051 54.1421 375.112 54.024C375.174 53.9059 375.21 53.7768 375.218 53.6445V36.1509L381.91 53.2072C381.981 53.4198 382.126 53.601 382.32 53.7188C382.5 53.8346 382.711 53.8969 382.927 53.8982H385.046C385.262 53.8974 385.473 53.8335 385.652 53.7145C385.845 53.6021 385.989 53.4249 386.058 53.2159L392.7 36.2471L392.772 53.697C392.782 53.8246 392.819 53.9489 392.879 54.0623C392.94 54.1758 393.023 54.2761 393.124 54.3574C393.326 54.5174 393.578 54.6026 393.838 54.5979H395.872C395.995 54.6006 396.117 54.5769 396.229 54.5286C396.342 54.4802 396.442 54.4083 396.523 54.318C396.683 54.1559 396.772 53.9397 396.773 53.7145L396.92 26.162C396.908 26.0323 396.869 25.9063 396.806 25.7914C396.743 25.6766 396.658 25.5751 396.554 25.4929C396.356 25.3343 396.106 25.2506 395.85 25.2567Z" fill="#2D2D2D"/>
<path d="M177.101 64V52.9115H166V47.0575H177.101V36H182.961V47.0575H194V52.9115H182.961V64H177.101Z" fill="#FC446E"/>
</svg>
