<svg width="111" height="110" viewBox="0 0 111 110" fill="none" xmlns="http://www.w3.org/2000/svg">
<g clip-path="url(#clip0_1_239)">
<path d="M70.4518 88.6021L53.7587 71.9023" stroke="#FFABB2" stroke-linecap="round" stroke-linejoin="round"/>
<path d="M32.9919 51.1357L16.2922 34.4426" stroke="#FFABB2" stroke-linecap="round" stroke-linejoin="round"/>
<path d="M12.8254 36.7156C12.07 37.4778 11.4697 38.395 11.146 39.4202C8.20531 48.7009 14.6532 64.1664 27.6974 77.2038C40.7348 90.2412 56.2003 96.6959 65.481 93.7552C66.5061 93.4315 67.4234 92.8379 68.1856 92.0758L74.4176 85.864C75.6047 84.6769 75.6047 82.7614 74.4176 81.5744L61.1981 68.3548C60.011 67.1678 58.0956 67.1678 56.9085 68.3548L50.4876 74.7757C49.8941 75.3693 49.0442 75.6391 48.2281 75.4502C46.3599 75.0253 42.6773 73.447 37.0657 67.8355C31.4542 62.2239 29.8759 58.5413 29.451 56.6731C29.2689 55.857 29.5387 55.0004 30.1255 54.4136L36.5464 47.9927C37.7334 46.8056 37.7334 44.8901 36.5464 43.7031L23.3268 30.4836C22.1398 29.2965 20.2243 29.2965 19.0372 30.4836L12.8254 36.7156Z" stroke="#FC446E" stroke-width="2" stroke-linecap="round" stroke-linejoin="round"/>
<path d="M96.675 14.7617H50.8855C49.0038 14.7617 47.4795 16.286 47.4795 18.1678V51.4662C47.4795 53.3479 49.0038 54.8722 50.8855 54.8722H67.3492L73.8174 64.8678L80.2855 54.8722H96.675C98.5568 54.8722 100.081 53.3479 100.081 51.4662V18.1678C100.081 16.286 98.5568 14.7617 96.675 14.7617Z" stroke="#FC446E" stroke-width="2" stroke-linecap="round" stroke-linejoin="round"/>
<path d="M81.2769 27.455C79.0849 25.263 75.5372 25.263 73.3452 27.455C71.1532 25.263 67.6055 25.263 65.4135 27.455C63.2215 29.6471 63.2215 33.1948 65.4135 35.3868L73.3452 43.3185L81.2769 35.3868C83.469 33.1948 83.469 29.6471 81.2769 27.455Z" stroke="#FC446E" stroke-width="2" stroke-linecap="round" stroke-linejoin="round"/>
</g>
<defs>
<clipPath id="clip0_1_239">
<rect width="91.6667" height="81.7115" fill="white" transform="translate(9.43285 13.75)"/>
</clipPath>
</defs>
</svg>
