<svg width="79" height="35" viewBox="0 0 79 35" fill="none" xmlns="http://www.w3.org/2000/svg">
<g clip-path="url(#clip0_1_445)">
<path d="M25.913 34.2501H17.9655C19.2455 30.587 20.4583 27.2029 21.6066 24.0952C22.7549 20.9888 23.8773 18.0606 24.9765 15.3133C26.0757 12.5659 27.1581 9.95811 28.225 7.48849C29.2906 5.02015 30.3988 2.60736 31.5471 0.252686H38.8023C39.9196 2.60736 41.02 5.02015 42.105 7.48849C43.1887 9.95811 44.2815 12.5659 45.3832 15.3133C46.4837 18.0606 47.6087 20.9875 48.7596 24.0952C49.9092 27.2029 51.1246 30.5883 52.4072 34.2501H44.2104C43.832 33.0682 43.4251 31.8554 42.9898 30.6102C42.5545 29.3651 42.1205 28.1251 41.6891 26.8903H28.411C27.9822 28.1303 27.5508 29.3728 27.1206 30.6193C26.6892 31.8657 26.2875 33.076 25.9155 34.2488L25.913 34.2501Z" fill="white"/>
<path d="M39.1524 13.4751C38.0571 12.3797 36.2811 12.3797 35.1844 13.4751C34.0891 12.3797 32.3131 12.3797 31.2165 13.4751C30.1212 14.5704 30.1212 16.3464 31.2165 17.443L35.1844 21.4109L39.1524 17.443C40.2477 16.3477 40.2477 14.5717 39.1524 13.4751Z" fill="#FC446E"/>
<path d="M0 34.2422V0.25H25.9995L23.7211 6.67594H7.65171V13.789H21.0228L18.4731 20.215H7.65171V34.2435H0V34.2422Z" fill="white"/>
<path d="M57.867 34.2423C56.5133 31.3878 55.1791 28.4247 53.8629 25.3532C52.5467 22.283 51.2964 19.245 50.1119 16.2394C48.9275 13.2337 47.8386 10.3572 46.8454 7.60858C45.8521 4.85995 44.9931 2.40712 44.2711 0.250071H52.7082C53.3449 2.21854 54.0515 4.33813 54.8303 6.60626C55.6092 8.87568 56.4035 11.1374 57.2108 13.3913C58.0181 15.6452 58.7931 17.8048 59.5332 19.8689C60.2733 21.9342 60.9824 23.7167 61.6605 25.2176C62.2986 23.7257 62.9974 21.9484 63.7543 19.8831C64.5112 17.819 65.2952 15.6607 66.1025 13.4055C66.9098 11.1516 67.7029 8.88989 68.4817 6.62047C69.2606 4.35234 69.9697 2.22758 70.6091 0.248779H78.7555C77.9934 2.41745 77.1177 4.87287 76.127 7.61504C75.1363 10.3585 74.0526 13.2337 72.8746 16.2419C71.6979 19.2515 70.4554 22.292 69.1482 25.3661C67.8411 28.4402 66.512 31.3981 65.1648 34.241H57.867V34.2423Z" fill="white"/>
</g>
<defs>
<clipPath id="clip0_1_445">
<rect width="78.7555" height="34" fill="white" transform="translate(0 0.25)"/>
</clipPath>
</defs>
</svg>
