<svg width="21" height="22" viewBox="0 0 21 22" fill="none" xmlns="http://www.w3.org/2000/svg">
<g clip-path="url(#clip0_1_479)">
<path d="M14.6263 1.56319C15.691 1.61133 16.4181 1.78076 17.0539 2.02771C17.7116 2.28341 18.2693 2.62539 18.8251 3.18119C19.3809 3.73699 19.7229 4.29467 19.9786 4.95237C20.2255 5.58882 20.3943 6.3153 20.4431 7.38C20.4884 8.3704 20.5013 8.73494 20.5029 10.9564V12.0499C20.5013 14.2714 20.4884 14.6359 20.4431 15.6263C20.395 16.691 20.2255 17.4181 19.9786 18.054C19.7229 18.7117 19.3809 19.2693 18.8251 19.8251C18.2693 20.3809 17.7116 20.7229 17.0539 20.9786C16.4175 21.2256 15.691 21.3944 14.6263 21.4431C13.6359 21.4884 13.2714 21.5014 11.0499 21.503H9.95638C7.73489 21.5014 7.37036 21.4884 6.37996 21.4431C5.31525 21.395 4.58815 21.2256 3.95233 20.9786C3.29462 20.7229 2.73695 20.3809 2.18115 19.8251C1.62535 19.2693 1.28337 18.7117 1.02766 18.054C0.780709 17.4175 0.611907 16.691 0.563141 15.6263C0.523084 14.7502 0.508338 14.3639 0.504349 12.7485V10.2578C0.508338 8.64248 0.523084 8.25613 0.563141 7.38C0.611281 6.3153 0.780709 5.58819 1.02766 4.95237C1.28337 4.29467 1.62535 3.73699 2.18115 3.18119C2.73695 2.62539 3.29462 2.28341 3.95233 2.02771C4.58877 1.78076 5.31525 1.61195 6.37996 1.56319C7.25608 1.52313 7.64244 1.50838 9.25776 1.50439H11.7485C13.3638 1.50838 13.7502 1.52313 14.6263 1.56319ZM10.5 6.36629C7.665 6.36629 5.36625 8.66442 5.36625 11.5C5.36625 14.335 7.66437 16.6338 10.5 16.6338C13.335 16.6338 15.6337 14.3357 15.6337 11.5C15.6337 8.66504 13.3356 6.36629 10.5 6.36629ZM10.5 8.16692C12.3406 8.16692 13.8325 9.65879 13.8325 11.4994C13.8325 13.34 12.3406 14.8319 10.5 14.8319C8.65937 14.8319 7.1675 13.34 7.1675 11.4994C7.1675 9.65879 8.65937 8.16692 10.5 8.16692ZM15.8369 4.96442C15.1744 4.96442 14.6375 5.50129 14.6375 6.16379C14.6375 6.82629 15.1744 7.36317 15.8369 7.36317C16.4994 7.36317 17.0362 6.82629 17.0362 6.16379C17.0362 5.50129 16.4994 4.96442 15.8369 4.96442Z" fill="#FC446E"/>
</g>
<defs>
<clipPath id="clip0_1_479">
<rect width="21" height="21" fill="white" transform="translate(0 0.5)"/>
</clipPath>
</defs>
</svg>
