<svg width="111" height="110" viewBox="0 0 111 110" fill="none" xmlns="http://www.w3.org/2000/svg">
<g clip-path="url(#clip0_1_171)">
<path d="M38.8992 16.6729H83.9413" stroke="#FFABB2" stroke-linecap="round" stroke-linejoin="round"/>
<path d="M38.8992 73.9272H83.9413" stroke="#FFABB2" stroke-linecap="round" stroke-linejoin="round"/>
<path d="M84.32 65.15V77.0919C84.32 78.9311 82.8324 80.4188 80.9931 80.4188H41.8407C40.0014 80.4188 38.5137 78.9311 38.5137 77.0919V13.5081C38.5137 11.6688 40.0014 10.1812 41.8407 10.1812H80.9931C82.8324 10.1812 84.32 11.6688 84.32 13.5081V24.6858" stroke="#FC446E" stroke-width="2" stroke-linecap="round" stroke-linejoin="round"/>
<path d="M88.3705 61.9177L85.1653 64.1627C83.3868 65.4069 80.9322 64.9742 79.688 63.1957C78.4438 61.4173 78.8765 58.9627 80.655 57.7185L83.8602 55.4735C85.6386 54.2292 88.0933 54.662 89.3375 56.4404C90.5817 58.2189 90.1489 60.6735 88.3705 61.9177Z" stroke="#FC446E" stroke-width="2" stroke-linecap="round" stroke-linejoin="round"/>
<path d="M88.3705 51.9031L85.1653 54.1481C83.3868 55.3923 80.9322 54.9595 79.688 53.1811C78.4438 51.4027 78.8765 48.948 80.655 47.7038L83.8602 45.4588C85.6386 44.2146 88.0933 44.6474 89.3375 46.4258C90.5817 48.2042 90.1489 50.6588 88.3705 51.9031Z" stroke="#FC446E" stroke-width="2" stroke-linecap="round" stroke-linejoin="round"/>
<path d="M88.3705 41.8952L85.1653 44.1403C83.3868 45.3845 80.9322 44.9517 79.688 43.1733C78.4438 41.3949 78.8765 38.9402 80.655 37.696L83.8602 35.451C85.6386 34.2068 88.0933 34.6395 89.3375 36.418C90.5817 38.1964 90.1489 40.651 88.3705 41.8952Z" stroke="#FC446E" stroke-width="2" stroke-linecap="round" stroke-linejoin="round"/>
<path d="M88.3705 31.8874L85.1653 34.1324C83.3868 35.3767 80.9322 34.9439 79.688 33.1655C78.4438 31.387 78.8765 28.9324 80.655 27.6882L83.8602 25.4432C85.6386 24.199 88.0933 24.6317 89.3375 26.4102C90.5817 28.1886 90.1489 30.6432 88.3705 31.8874Z" stroke="#FC446E" stroke-width="2" stroke-linecap="round" stroke-linejoin="round"/>
<path d="M51.6457 91.2922L52.1461 90.3996C53.1063 88.682 54.4046 87.1673 55.9531 85.9569L62.8234 80.5811" stroke="#FC446E" stroke-width="2" stroke-linecap="round" stroke-linejoin="round"/>
<path d="M52.9305 92.9016L48.9341 99.8192L21.3043 86.0651L25.3006 79.1543L52.9305 92.9016Z" stroke="#FC446E" stroke-width="2" stroke-linecap="round" stroke-linejoin="round"/>
<path d="M38.5138 36.9048V34.3217C38.5138 31.1097 35.9104 28.5063 32.6984 28.5063H31.231C30.1897 28.5063 29.3512 29.3516 29.3512 30.3862V47.1697C29.3512 48.7385 28.8913 50.287 27.9446 51.5312C26.0986 53.952 24.9558 57.3128 24.9558 61.0252C24.9558 64.2507 25.8214 67.2125 27.2549 69.5251C28.817 72.0406 28.9657 75.1782 27.6471 77.8289L26.768 79.587" stroke="#FC446E" stroke-width="2" stroke-linecap="round" stroke-linejoin="round"/>
<path d="M70.5795 37.5741C68.037 35.0316 63.9121 35.0316 61.3628 37.5741C58.8203 35.0316 54.6954 35.0316 52.1461 37.5741C49.6036 40.1167 49.6036 44.2415 52.1461 46.7908L61.3628 56.0076L70.5795 46.7908C73.1221 44.2483 73.1221 40.1234 70.5795 37.5741Z" stroke="#FC446E" stroke-width="2" stroke-linecap="round" stroke-linejoin="round"/>
</g>
<defs>
<clipPath id="clip0_1_171">
<rect width="70.7719" height="91.6667" fill="white" transform="translate(20.29 9.16675)"/>
</clipPath>
</defs>
</svg>
