<svg width="100" height="82" viewBox="0 0 100 82" fill="none" xmlns="http://www.w3.org/2000/svg">
<path d="M30.1993 80.5795V61.9538H11.5736V80.5795" stroke="#FFA6B1" stroke-width="2" stroke-miterlimit="10" stroke-linecap="round" stroke-linejoin="round"/>
<path d="M69.9913 80.5795V61.9538H88.617V80.5795" stroke="#FFA6B1" stroke-width="2" stroke-miterlimit="10" stroke-linecap="round" stroke-linejoin="round"/>
<path d="M47.633 6.47217C47.8362 6.10397 47.9758 5.68499 47.9758 5.22792C47.9758 3.83131 46.8332 2.68863 45.4365 2.68863C45.1064 2.68863 44.789 2.75211 44.497 2.87907C44.205 1.79988 43.2274 1 42.0593 1C40.8912 1 39.9136 1.79988 39.6216 2.87907C39.3296 2.76481 39.0121 2.68863 38.682 2.68863C37.2854 2.68863 36.1427 3.83131 36.1427 5.22792C36.1427 5.68499 36.2697 6.10397 36.4855 6.47217C35.7745 6.91654 35.3048 7.71642 35.3048 8.61787C35.3048 10.0145 36.4475 11.1572 37.8441 11.1572H46.3126C47.7092 11.1572 48.8519 10.0145 48.8519 8.61787C48.8265 7.71642 48.344 6.92924 47.633 6.47217Z" stroke="#FC446E" stroke-width="2" stroke-miterlimit="10" stroke-linecap="round" stroke-linejoin="round"/>
<path d="M1 81H98.3436" stroke="#FC446E" stroke-width="2" stroke-miterlimit="10" stroke-linecap="round" stroke-linejoin="round"/>
<path d="M50.0951 47.9892V80.1493" stroke="#FC446E" stroke-width="2" stroke-miterlimit="10" stroke-linecap="round" stroke-linejoin="round"/>
<path d="M5.22765 80.1488V26.8238C8.50333 26.8238 11.1569 29.4773 11.1569 32.753V53.918H29.8334C33.0836 53.918 35.7118 56.5461 35.7118 59.7964V80.1615" stroke="#FC446E" stroke-width="2" stroke-miterlimit="10" stroke-linecap="round" stroke-linejoin="round"/>
<path d="M94.1168 80.1488V26.8238C90.8412 26.8238 88.1876 29.4773 88.1876 32.753V53.918H69.5238C66.2735 53.918 63.6454 56.5461 63.6454 59.7964V80.1615" stroke="#FC446E" stroke-width="2" stroke-miterlimit="10" stroke-linecap="round" stroke-linejoin="round"/>
<path d="M49.2336 22.6457C48.5607 20.8047 47.1514 19.3192 45.3612 18.5448L46.288 11.1681H38.6702L39.597 18.5448C37.0577 19.662 35.2929 22.1886 35.2929 25.1342C35.2929 28.3718 37.4386 31.1142 40.3842 32.0157" stroke="#FC446E" stroke-width="2" stroke-miterlimit="10" stroke-linecap="round" stroke-linejoin="round"/>
<path d="M65.7526 30.6348V23.0169H45.4383V30.6348" stroke="#FFA6B1" stroke-width="2" stroke-miterlimit="10" stroke-linecap="round" stroke-linejoin="round"/>
<path d="M73.408 31.9024H25.936C23.384 31.9024 21.3145 33.9719 21.3145 36.5239V46.3002H78.0295V36.5239C78.0295 33.9719 75.96 31.9024 73.408 31.9024Z" stroke="#FC446E" stroke-width="2" stroke-miterlimit="10" stroke-linecap="round" stroke-linejoin="round"/>
</svg>
