<svg width="155" height="52" viewBox="0 0 155 52" fill="none" xmlns="http://www.w3.org/2000/svg">
<path d="M149.919 2H5.21588C3.44119 2 2 3.44119 2 5.21588V46.7841C2 48.5588 3.44119 50 5.21588 50H149.919C151.693 50 153.135 48.5588 153.135 46.7841V5.21588C153.135 3.44119 151.693 2 149.919 2Z" stroke="#FFA6B1" stroke-width="2.5" stroke-miterlimit="10"/>
<path d="M23.3174 34.2548L18.4221 18.223H21.5427L25.5447 31.3962L29.6182 18.223H32.7387L27.8435 34.2548H23.3174Z" fill="#FC446E"/>
<path d="M34.1911 34.2547V18.2229H37.2164V34.2547H34.1911Z" fill="#FC446E"/>
<path d="M40.1114 34.2547V18.2229H46.8766C47.0315 18.2229 47.2459 18.2229 47.5079 18.2348C47.7699 18.2467 48.0081 18.2705 48.2106 18.3063C49.1635 18.4492 49.9496 18.7708 50.5689 19.2472C51.1764 19.7236 51.629 20.3311 51.9267 21.0696C52.2126 21.7961 52.3555 22.6179 52.3555 23.5112C52.3555 24.4045 52.2126 25.2264 51.9148 25.9529C51.6171 26.6795 51.1645 27.2869 50.557 27.7753C49.9496 28.2636 49.1635 28.5733 48.2106 28.7162C48.0081 28.7519 47.7699 28.7638 47.496 28.7877C47.222 28.8115 47.0196 28.8115 46.8766 28.8115H43.1367V34.2428H40.1114V34.2547ZM43.1367 25.9887H46.7456C46.9004 25.9887 47.0672 25.9767 47.2578 25.9648C47.4483 25.9529 47.6151 25.9172 47.7699 25.8815C48.1749 25.7743 48.4965 25.5837 48.7109 25.3217C48.9372 25.0596 49.092 24.7619 49.1754 24.4403C49.2588 24.1187 49.3064 23.809 49.3064 23.5231C49.3064 23.2373 49.2588 22.9276 49.1754 22.606C49.092 22.2844 48.9372 21.9867 48.7109 21.7246C48.4846 21.4626 48.1749 21.272 47.7699 21.1648C47.6151 21.1172 47.4483 21.0934 47.2578 21.0815C47.0672 21.0696 46.9004 21.0576 46.7456 21.0576H43.1367V25.9887Z" fill="#FC446E"/>
<path d="M58.144 34.2547V18.2229H63.3252C63.4562 18.2229 63.7063 18.2229 64.0993 18.2348C64.4924 18.2467 64.8735 18.2705 65.2309 18.3182C66.5172 18.473 67.613 18.9256 68.5182 19.6641C69.4234 20.4026 70.1023 21.3435 70.5668 22.4869C71.0314 23.6303 71.2696 24.881 71.2696 26.2388C71.2696 27.5966 71.0314 28.8472 70.5668 29.9906C70.1023 31.1341 69.4115 32.075 68.5182 32.8135C67.6249 33.5519 66.5291 34.0045 65.2309 34.1594C64.8616 34.207 64.4924 34.2308 64.0993 34.2428C63.7063 34.2547 63.4443 34.2547 63.3252 34.2547H58.144ZM61.217 31.408H63.3371C63.5395 31.408 63.8135 31.408 64.147 31.3961C64.4924 31.3842 64.7902 31.3485 65.076 31.3008C65.7788 31.1579 66.3386 30.8363 66.7792 30.3241C67.2199 29.812 67.5534 29.1926 67.7559 28.478C67.9703 27.7633 68.0775 27.013 68.0775 26.2507C68.0775 25.4527 67.9703 24.6904 67.744 23.9638C67.5177 23.2373 67.1961 22.6298 66.7435 22.1415C66.3028 21.6413 65.743 21.3316 65.0641 21.2006C64.7902 21.141 64.4805 21.1053 64.1351 21.1053C63.7897 21.0934 63.5276 21.0934 63.3252 21.0934H61.2051V31.408H61.217Z" fill="#FC446E"/>
<path d="M73.7226 34.2547V18.2229H76.7479V34.2547H73.7226Z" fill="#FC446E"/>
<path d="M79.6429 34.2547V18.2229H82.7158L89.6835 28.9068V18.2229H92.7565V34.2547H89.6835L82.7158 23.5708V34.2547H79.6429Z" fill="#FC446E"/>
<path d="M95.4243 34.2547V18.2229H98.4973L105.465 28.9068V18.2229H108.538V34.2547H105.465L98.4973 23.5708V34.2547H95.4243Z" fill="#FC446E"/>
<path d="M111.205 34.2547V18.2229H121.662V21.0457H114.23V24.476H120.328V27.2988H114.23V31.4199H121.662V34.2428H111.205V34.2547Z" fill="#FC446E"/>
<path d="M123.903 34.2547V18.2229H130.668C130.823 18.2229 131.037 18.2229 131.299 18.2348C131.561 18.2467 131.799 18.2705 132.002 18.3063C132.955 18.4492 133.741 18.7708 134.36 19.2472C134.968 19.7236 135.42 20.3311 135.718 21.0696C136.004 21.7961 136.147 22.6179 136.147 23.5112C136.147 24.8571 135.813 26.0006 135.146 26.9534C134.479 27.9063 133.431 28.4899 132.002 28.7162L130.668 28.8115H126.928V34.2428H123.903V34.2547ZM126.928 25.9887H130.537C130.692 25.9887 130.859 25.9767 131.049 25.9648C131.24 25.9529 131.406 25.9172 131.561 25.8815C131.966 25.7743 132.288 25.5837 132.502 25.3217C132.729 25.0596 132.883 24.7619 132.967 24.4403C133.05 24.1187 133.098 23.809 133.098 23.5231C133.098 23.2373 133.05 22.9276 132.967 22.606C132.883 22.2844 132.729 21.9867 132.502 21.7246C132.276 21.4626 131.966 21.272 131.561 21.1648C131.406 21.1172 131.24 21.0934 131.049 21.0815C130.859 21.0696 130.692 21.0576 130.537 21.0576H126.928V25.9887ZM132.943 34.2547L129.787 27.7276L132.907 27.1321L136.385 34.2547H132.943Z" fill="#FC446E"/>
</svg>
