<svg width="61" height="62" viewBox="0 0 61 62" fill="none" xmlns="http://www.w3.org/2000/svg">
<path d="M60.8277 61.5H29.9323H0V30.5018V0.5H30.4138H60.8277V30.8933V61.5Z" fill="white"/>
<path d="M38.438 43.0017L37.2164 41.492V43.0017H33.2119V40.4245C32.6949 40.6634 32.1271 40.7854 31.529 40.7854H30.1148V43.0017H24.0675L22.9624 41.5479L21.8625 43.0017H11.831V33.4197H21.9081L23.0081 34.8582L24.108 33.4197H60.8277V0.5H0V26.2267L2.29117 20.8587H6.22976L7.50715 23.8528V20.8587H12.4342L13.1945 23.0293L13.9498 20.8587H35.9542V21.9669C36.7551 21.2603 37.8348 20.8587 39.1122 20.8587H46.1175L47.3949 23.8528V20.8587H51.5413L52.6362 22.5617V20.8587H56.7775V30.4408H52.6565L51.5514 28.7074V30.4408H45.5346L44.9364 28.9717H43.289L42.701 30.4408H38.9753C37.7537 30.4408 36.7247 30.0697 35.9542 29.4038V30.4408H29.7802L28.5586 28.9311V30.4408H5.65697L5.05883 28.9717H3.41142L2.82342 30.4408H0V61.5H60.8277V42.2952C60.2143 42.7425 59.4235 43.0017 58.5162 43.0017H38.438Z" fill="#006FCF"/>
<path d="M60.1586 36.2308L60.8733 34.6193H57.0868C55.5255 34.6193 54.603 35.575 54.603 36.8763C54.603 38.2336 55.4748 39.0113 56.8384 39.0113H58.5365C58.9116 39.0113 59.1802 39.2452 59.1802 39.6061C59.1802 39.967 58.9116 40.1907 58.5365 40.1907H54.8209V41.8021H58.5162C60.0774 41.8021 61 40.8566 61 39.4688C61 38.1624 60.1839 37.405 58.7646 37.405H57.0665C56.6863 37.405 56.4227 37.1712 56.4227 36.8103C56.4227 36.4493 56.6914 36.2257 57.0665 36.2257H60.1586V36.2308ZM49.8584 36.8153C49.8584 36.4544 50.1271 36.2308 50.5022 36.2308H53.5892L54.3039 34.6193H50.5174C48.9561 34.6193 48.0336 35.575 48.0336 36.8763C48.0336 38.2336 48.9054 39.0113 50.269 39.0113H51.9671C52.3422 39.0113 52.6109 39.2452 52.6109 39.6061C52.6109 39.967 52.3422 40.1907 51.9671 40.1907H48.2515V41.8021H51.9468C53.5081 41.8021 54.4306 40.8566 54.4306 39.4688C54.4306 38.1624 53.6145 37.405 52.1952 37.405H50.4971C50.122 37.4101 49.8584 37.1763 49.8584 36.8153ZM41.601 41.8072H47.4405V40.1958H43.4157V38.9758H47.3391V37.405H43.4157V36.2358H47.4405V34.6244H41.601V41.8072ZM41.3121 41.8072L38.9905 39.1893C40.1615 38.9402 40.866 38.0608 40.866 36.9424C40.866 35.5648 39.9131 34.6244 38.3822 34.6244H34.398V41.8123H36.2178V39.2655H36.9224L39.0666 41.8123H41.3121V41.8072ZM38.1947 37.6998H36.2178V36.2308H38.1947C38.7523 36.2308 39.0412 36.5713 39.0412 36.9678C39.0412 37.3796 38.7523 37.6998 38.1947 37.6998ZM33.6174 37.039C33.6174 35.6004 32.6644 34.6143 31.1336 34.6143H27.0987V41.8021H28.9185V39.4587H31.0728C32.6442 39.4638 33.6174 38.4268 33.6174 37.039ZM31.7875 37.0492C31.7875 37.4914 31.4986 37.8523 30.941 37.8523H28.9134V36.2308H30.941C31.4986 36.2308 31.7875 36.6018 31.7875 37.0492ZM26.9416 41.8072L24.0624 38.1828L26.9213 34.6193H24.696L23.0081 36.8255L21.3201 34.6193H19.034L21.903 38.2234L19.0441 41.8072H21.2694L22.9574 39.5807L24.6555 41.8072H26.9416ZM13.0577 41.8072H18.8971V40.1958H14.8724V38.9758H18.7957V37.405H14.8724V36.2358H18.8971V34.6244H13.0577V41.8072Z" fill="#006FCF"/>
<path d="M55.561 29.2412V22.0533H53.7514V26.5114L50.8925 22.0533H48.5861V29.2412H50.4059V24.6204L53.356 29.2412H55.561ZM46.3456 29.2412H48.4036L45.3318 22.0533H42.9697L39.8979 29.2412H41.9052L42.4932 27.7721H45.7525L46.3456 29.2412ZM45.1138 26.2166H43.1268L44.1203 23.7512L45.1138 26.2166ZM39.2541 23.7207H41.1803V22.0533H39.1122C36.8565 22.0533 35.645 23.5529 35.645 25.5964V25.6981C35.645 27.9043 36.9173 29.2412 38.9703 29.2412H39.1173L39.8624 27.6298H39.2795C38.1389 27.6298 37.4597 26.9333 37.4597 25.6981V25.5964C37.4648 24.5188 38.0578 23.7207 39.2541 23.7207ZM32.9483 29.2412H34.7681V25.7184V22.0533H32.9483V25.7133V29.2412ZM32.6594 29.2412L30.3327 26.6233C31.5037 26.3793 32.2082 25.4948 32.2082 24.3764C32.2082 22.9988 31.2553 22.0584 29.7244 22.0584H25.7453V29.2463H27.5651V26.6995H28.2697L30.4138 29.2463H32.6594V29.2412ZM29.542 25.1338H27.5651V23.6648H29.542C30.0996 23.6648 30.3885 24.0053 30.3885 24.4018C30.3834 24.8187 30.0945 25.1338 29.542 25.1338ZM18.8718 29.2412H24.7112V27.6298H20.6865V26.4098H24.6099V24.839H20.6865V23.6698H24.7112V22.0533H18.8718V29.2412ZM15.8608 29.2412H17.6603V22.0533H14.8014L13.2047 26.6436L11.5927 22.0533H8.70342V29.2412H10.5029V23.924L12.3886 29.2412H13.9802L15.8608 23.924V29.2412ZM6.45787 29.2412H8.5108L5.44408 22.0533H3.08194L0.0101395 29.2412H2.01745L2.60545 27.7721H5.8648L6.45787 29.2412ZM5.22611 26.2166H3.23907L4.23259 23.7512L5.22611 26.2166Z" fill="#006FCF"/>
</svg>
