<svg width="93" height="82" viewBox="0 0 93 82" fill="none" xmlns="http://www.w3.org/2000/svg">
<path d="M78.9515 1H13.4026C10.7014 1 8.51907 3.1823 8.51907 5.88357V53.5349C8.51907 56.2362 10.7014 58.4185 13.4026 58.4185H36.9688L46.2303 72.7232L55.4918 58.4185H78.9515C81.6528 58.4185 83.8351 56.2362 83.8351 53.5349V5.88357C83.8218 3.1823 81.6395 1 78.9515 1Z" stroke="#FC446E" stroke-width="2" stroke-miterlimit="10" stroke-linecap="round" stroke-linejoin="round"/>
<path d="M1 81.0002H91.3526" stroke="#FFA6B1" stroke-width="2" stroke-miterlimit="10" stroke-linecap="round" stroke-linejoin="round"/>
<path d="M56.3831 20.6404C53.6819 17.9392 49.2907 17.9392 46.5894 20.6404C43.8881 17.9392 39.4969 17.9392 36.7956 20.6404C34.0944 23.3417 34.0944 27.7329 36.7956 30.4342L46.5894 40.2279L56.3831 30.4342C59.0844 27.7329 59.0844 23.3417 56.3831 20.6404Z" stroke="#FC446E" stroke-width="2" stroke-miterlimit="10" stroke-linecap="round" stroke-linejoin="round"/>
</svg>
