<svg width="115" height="64" viewBox="0 0 115 64" fill="none" xmlns="http://www.w3.org/2000/svg">
<path d="M19.1645 64C15.3854 64 12.0589 63.254 9.18479 61.7619C6.31072 60.2698 4.06039 58.1663 2.44602 55.4512C0.807185 52.7361 0 49.5074 0 45.7894C0 41.8391 0.966176 38.3535 2.89853 35.3572C4.83088 32.3608 7.81502 30.1105 11.8632 28.6306L11.8265 30.8932C8.41429 29.9025 5.82152 28.0313 4.06039 25.304C2.29925 22.5767 1.41869 19.5559 1.41869 16.2538C1.41869 12.866 2.17695 9.95528 3.70571 7.53373C5.22224 5.09994 7.32582 3.24097 10.0042 1.94458C12.6581 0.648194 15.7157 0 19.1645 0C22.6012 0 25.6587 0.648194 28.3126 1.94458C30.9666 3.24097 33.0579 5.09994 34.5867 7.53373C36.1032 9.96751 36.8737 12.8783 36.8737 16.2538C36.8737 19.5559 36.0298 22.5523 34.3543 25.2551C32.6788 27.958 30.086 29.8047 26.5882 30.8076L26.2947 28.6795C30.3673 30.0982 33.3881 32.3241 35.3816 35.3327C37.3751 38.3413 38.3658 41.8269 38.3658 45.7894C38.3658 49.5196 37.5463 52.7361 35.9075 55.4512C34.2687 58.1663 32.0061 60.2698 29.1198 61.7619C26.2335 63.254 22.9192 64 19.1645 64ZM19.1645 59.1813C23.3228 59.1813 26.686 58.0317 29.2543 55.7202C31.8227 53.421 33.1191 50.1066 33.1191 45.7772C33.1191 41.3988 31.8471 38.06 29.3033 35.773C26.7594 33.486 23.3839 32.3363 19.1645 32.3363C14.9207 32.3363 11.533 33.486 8.98911 35.773C6.44525 38.06 5.17332 41.3988 5.17332 45.7772C5.17332 50.1066 6.46971 53.421 9.05026 55.7202C11.6308 58.0195 15.0063 59.1813 19.1645 59.1813ZM19.1645 27.5177C22.858 27.5177 25.8666 26.576 28.1659 24.6803C30.4651 22.7846 31.627 19.9839 31.627 16.2538C31.627 12.5236 30.4774 9.72291 28.1659 7.82725C25.8666 5.93159 22.858 4.98987 19.1645 4.98987C15.4344 4.98987 12.4258 5.93159 10.1143 7.82725C7.81502 9.72291 6.65316 12.5236 6.65316 16.2538C6.65316 19.9839 7.80279 22.7846 10.1143 24.6803C12.4135 26.576 15.4344 27.5177 19.1645 27.5177Z" fill="#FC446E"/>
<path d="M61.9938 64C58.3859 64 55.1205 63.1317 52.1975 61.395C49.2867 59.6583 46.9508 57.3346 45.2263 54.4238C43.4897 51.5131 42.6213 48.2477 42.6213 44.6276V19.3724C42.6213 15.7646 43.4897 12.4991 45.2263 9.57615C46.963 6.66539 49.2867 4.32945 52.1975 2.60501C55.1205 0.868336 58.3859 0 61.9938 0C65.6017 0 68.8793 0.868336 71.8023 2.60501C74.7375 4.34168 77.0612 6.66539 78.7735 9.57615C80.4979 12.4869 81.354 15.7523 81.354 19.3724V44.6276C81.354 48.2354 80.4979 51.5009 78.7735 54.4238C77.049 57.3346 74.7253 59.6706 71.8023 61.395C68.8793 63.1317 65.6139 64 61.9938 64ZM61.9938 59.1813C64.6355 59.1813 67.0448 58.5332 69.2218 57.2368C71.3987 55.9404 73.1354 54.2037 74.444 52.0145C75.7526 49.8253 76.4008 47.4038 76.4008 44.7621V19.2012C76.4008 16.584 75.7404 14.1747 74.444 11.9855C73.1354 9.79629 71.3987 8.05962 69.2218 6.76323C67.0448 5.46685 64.6355 4.81865 61.9938 4.81865C59.3521 4.81865 56.9428 5.46685 54.7658 6.76323C52.5889 8.05962 50.8522 9.79629 49.5436 11.9855C48.2349 14.1747 47.5868 16.584 47.5868 19.2012V44.7621C47.5868 47.4038 48.2349 49.8253 49.5436 52.0145C50.8522 54.2037 52.5889 55.9526 54.7658 57.2368C56.9428 58.5332 59.3521 59.1813 61.9938 59.1813Z" fill="#FC446E"/>
<path d="M96.6665 13.245C95.6881 13.245 94.8075 13.0127 94.0003 12.5357C93.1931 12.0587 92.5572 11.4228 92.0802 10.6156C91.6032 9.80839 91.3708 8.92782 91.3708 7.93719C91.3708 6.97101 91.6154 6.09045 92.1047 5.28326C92.5939 4.47608 93.2421 3.82788 94.0492 3.35091C94.8564 2.87393 95.7248 2.62933 96.6787 2.62933C97.6571 2.62933 98.5377 2.87393 99.3449 3.33868C100.152 3.81565 100.788 4.45162 101.265 5.2588C101.742 6.06599 101.987 6.94655 101.987 7.93719C101.987 8.92782 101.742 9.80839 101.265 10.6156C100.788 11.4228 100.14 12.0587 99.3449 12.5357C98.5255 13.0004 97.6327 13.245 96.6665 13.245ZM94.0126 24.301L92.2392 22.5277L111.734 3.06962L113.507 4.84298L94.0126 24.301ZM96.6665 10.9336C97.2046 10.9336 97.706 10.799 98.1585 10.5177C98.6111 10.2364 98.978 9.88177 99.247 9.42926C99.5161 8.97674 99.6628 8.47531 99.6628 7.93719C99.6628 7.39906 99.5283 6.89763 99.247 6.44512C98.9657 5.9926 98.6111 5.6257 98.1585 5.35664C97.706 5.07535 97.2046 4.94082 96.6665 4.94082C96.1284 4.94082 95.6269 5.07535 95.1744 5.35664C94.7219 5.6257 94.355 5.9926 94.0859 6.44512C93.8046 6.89763 93.6701 7.39906 93.6701 7.93719C93.6701 8.47531 93.8046 8.97674 94.0859 9.42926C94.3672 9.88177 94.7219 10.2487 95.1744 10.5177C95.6269 10.7868 96.1161 10.9336 96.6665 10.9336ZM109.08 24.7413C108.102 24.7413 107.221 24.5089 106.414 24.032C105.607 23.555 104.971 22.919 104.494 22.1118C104.017 21.3047 103.772 20.4241 103.772 19.4335C103.772 18.4673 104.017 17.5867 104.506 16.7795C104.995 15.9723 105.643 15.3242 106.451 14.8472C107.258 14.3702 108.138 14.1256 109.08 14.1256C110.058 14.1256 110.939 14.3702 111.746 14.835C112.553 15.3119 113.189 15.9479 113.666 16.7551C114.143 17.5623 114.376 18.4428 114.376 19.4335C114.376 20.4241 114.143 21.3047 113.666 22.1118C113.189 22.919 112.541 23.555 111.746 24.032C110.939 24.5089 110.058 24.7413 109.08 24.7413ZM109.08 22.4298C109.618 22.4298 110.12 22.2953 110.572 22.014C111.025 21.7449 111.391 21.378 111.661 20.9255C111.942 20.473 112.076 19.9716 112.076 19.4335C112.076 18.8953 111.942 18.3939 111.661 17.9414C111.379 17.4889 111.025 17.122 110.572 16.8529C110.12 16.5716 109.618 16.4371 109.08 16.4371C108.542 16.4371 108.04 16.5716 107.588 16.8529C107.135 17.122 106.769 17.4889 106.499 17.9414C106.218 18.3939 106.084 18.8953 106.084 19.4335C106.084 19.9716 106.218 20.473 106.499 20.9255C106.781 21.378 107.135 21.7449 107.588 22.014C108.04 22.2953 108.542 22.4298 109.08 22.4298Z" fill="#FFA6B1"/>
</svg>
