<svg width="236" height="49" viewBox="0 0 236 49" fill="none" xmlns="http://www.w3.org/2000/svg">
<path d="M37.4808 48.4999H26.1129C27.9428 43.3298 29.679 38.5512 31.3215 34.1641C32.964 29.7789 34.5706 25.6456 36.1433 21.768C37.716 17.8904 39.2629 14.2076 40.7897 10.7215C42.3146 7.23544 43.8993 3.83002 45.5418 0.505249H55.919C57.5157 3.83002 59.0904 7.23544 60.6432 10.7215C62.194 14.2076 63.7567 17.8904 65.3315 21.768C66.9062 25.6456 68.5148 29.7789 70.1593 34.1641C71.8038 38.5512 73.5439 43.3298 75.3758 48.4999H63.6511C63.1089 46.8316 62.5288 45.1201 61.9049 43.3613C61.283 41.6045 60.6611 39.8536 60.0452 38.1105H41.0528C40.4389 39.8614 39.823 41.6163 39.207 43.3751C38.5891 45.1338 38.015 46.8434 37.4828 48.498L37.4808 48.4999Z" fill="white"/>
<path d="M56.4176 19.1722C54.8509 17.6259 52.3094 17.6259 50.7427 19.1722C49.1759 17.6259 46.6344 17.6259 45.0677 19.1722C43.5009 20.7185 43.5009 23.2268 45.0677 24.7731L50.7427 30.3741L56.4176 24.7731C57.9844 23.2268 57.9844 20.7185 56.4176 19.1722Z" fill="#FC446E"/>
<path d="M0.417236 48.4891V0.502319H37.6046L34.3455 9.57362H11.3605V19.6148H30.4864L26.8387 28.6861H11.3605V48.4911H0.417236V48.4891Z" fill="white"/>
<path d="M83.1863 48.4888C81.2508 44.4577 79.3412 40.2752 77.4595 35.9393C75.5758 31.6053 73.7878 27.3165 72.0935 23.073C70.3992 18.8315 68.8424 14.769 67.4212 10.8894C65.9999 7.00985 64.772 3.54737 63.7395 0.501967H75.807C76.718 3.27982 77.7286 6.27211 78.8429 9.4749C79.9571 12.6777 81.0913 15.8706 82.2475 19.0518C83.4036 22.233 84.5099 25.2823 85.5683 28.1959C86.6268 31.1115 87.6414 33.6277 88.6101 35.7465C89.5231 33.6414 90.5217 31.1311 91.6061 28.2156C92.6884 25.302 93.8087 22.2546 94.9648 19.0715C96.1209 15.8903 97.2531 12.6974 98.3674 9.49457C99.4817 6.29178 100.494 3.29359 101.409 0.5H113.062C111.972 3.56115 110.72 7.02756 109.303 10.8992C107.885 14.7709 106.335 18.8315 104.65 23.0769C102.966 27.3244 101.19 31.6171 99.3202 35.957C97.4505 40.2969 95.5508 44.4735 93.6233 48.4868H83.1843L83.1863 48.4888Z" fill="white"/>
<path d="M124.986 33.5464L130.591 15.4451H135.762L141.367 33.5464H137.801L132.808 17.5816H133.47L128.554 33.5464H124.986ZM128.349 29.775V26.582H138.028V29.775H128.349Z" fill="#FC446E"/>
<path d="M152.548 33.9239C150.714 33.9239 149.133 33.5304 147.804 32.7415C146.474 31.9546 145.452 30.8509 144.734 29.4345C144.016 28.018 143.658 26.3713 143.658 24.4945C143.658 22.6177 144.016 20.9711 144.734 19.5546C145.452 18.1381 146.474 17.0364 147.804 16.2495C149.133 15.4626 150.714 15.0671 152.548 15.0671C154.655 15.0671 156.423 15.5826 157.852 16.6135C159.283 17.6443 160.292 19.0392 160.878 20.7999L157.388 21.756C157.049 20.6583 156.475 19.8064 155.667 19.1985C154.86 18.5906 153.822 18.2876 152.548 18.2876C151.386 18.2876 150.415 18.5434 149.638 19.0549C148.86 19.5664 148.276 20.2864 147.885 21.217C147.495 22.1475 147.299 23.2413 147.299 24.4985C147.299 25.7556 147.495 26.8494 147.885 27.7799C148.276 28.7105 148.86 29.4305 149.638 29.942C150.415 30.4535 151.384 30.7093 152.548 30.7093C153.822 30.7093 154.862 30.4024 155.667 29.7905C156.475 29.1787 157.047 28.3288 157.388 27.2389L160.878 28.195C160.292 29.9558 159.283 31.3506 157.852 32.3815C156.421 33.4124 154.653 33.9278 152.548 33.9278V33.9239Z" fill="#FC446E"/>
<path d="M173.079 33.9239C171.245 33.9239 169.665 33.5304 168.335 32.7415C167.005 31.9546 165.983 30.8509 165.265 29.4345C164.548 28.018 164.189 26.3713 164.189 24.4945C164.189 22.6177 164.548 20.9711 165.265 19.5546C165.983 18.1381 167.005 17.0364 168.335 16.2495C169.665 15.4626 171.245 15.0671 173.079 15.0671C175.186 15.0671 176.954 15.5826 178.383 16.6135C179.815 17.6443 180.823 19.0392 181.409 20.7999L177.919 21.756C177.58 20.6583 177.006 19.8064 176.199 19.1985C175.391 18.5906 174.353 18.2876 173.079 18.2876C171.917 18.2876 170.946 18.5434 170.169 19.0549C169.391 19.5664 168.807 20.2864 168.417 21.217C168.026 22.1475 167.831 23.2413 167.831 24.4985C167.831 25.7556 168.026 26.8494 168.417 27.7799C168.807 28.7105 169.391 29.4305 170.169 29.942C170.946 30.4535 171.915 30.7093 173.079 30.7093C174.353 30.7093 175.393 30.4024 176.199 29.7905C177.006 29.1787 177.578 28.3288 177.919 27.2389L181.409 28.195C180.823 29.9558 179.815 31.3506 178.383 32.3815C176.952 33.4124 175.184 33.9278 173.079 33.9278V33.9239Z" fill="#FC446E"/>
<path d="M185.74 33.5464V15.4451H197.712V18.638H189.204V22.5097H196.185V25.7027H189.204V30.3534H197.712V33.5464H185.74Z" fill="#FC446E"/>
<path d="M209.226 33.9239C207.867 33.9239 206.643 33.6878 205.553 33.2137C204.46 32.7396 203.565 32.0608 202.866 31.1775C202.166 30.2942 201.722 29.2397 201.534 28.016L205.152 27.4888C205.407 28.5275 205.933 29.3282 206.731 29.8909C207.528 30.4516 208.437 30.7329 209.456 30.7329C210.024 30.7329 210.576 30.6444 211.112 30.4693C211.646 30.2942 212.087 30.0325 212.43 29.6902C212.775 29.3459 212.946 28.923 212.946 28.4213C212.946 28.2364 212.918 28.0593 212.862 27.8862C212.806 27.7131 212.717 27.5537 212.589 27.4022C212.462 27.2508 212.282 27.1091 212.047 26.9753C211.814 26.8416 211.519 26.7196 211.162 26.6114L206.398 25.2283C206.041 25.128 205.627 24.9864 205.156 24.8014C204.686 24.6165 204.229 24.3529 203.787 24.0086C203.344 23.6643 202.977 23.2099 202.684 22.6453C202.391 22.0806 202.244 21.3645 202.244 20.5029C202.244 19.2871 202.555 18.2778 203.175 17.4732C203.795 16.6686 204.622 16.0685 205.658 15.6751C206.695 15.2816 207.841 15.0888 209.097 15.0967C210.363 15.1144 211.491 15.3268 212.486 15.738C213.478 16.1492 214.311 16.7453 214.981 17.5302C215.651 18.3132 216.135 19.2713 216.432 20.4025L212.687 21.0301C212.551 20.4438 212.3 19.95 211.935 19.5467C211.571 19.1454 211.136 18.8385 210.63 18.63C210.125 18.4214 209.595 18.3073 209.043 18.2916C208.499 18.2739 207.989 18.3486 207.508 18.5119C207.028 18.6752 206.637 18.9113 206.336 19.2221C206.035 19.533 205.884 19.9009 205.884 20.3278C205.884 20.7212 206.007 21.0419 206.252 21.2898C206.5 21.5377 206.809 21.7364 207.183 21.8878C207.556 22.0393 207.939 22.1652 208.329 22.2656L211.513 23.1214C211.987 23.2473 212.513 23.4125 213.091 23.6171C213.67 23.8217 214.224 24.107 214.754 24.4729C215.284 24.8369 215.723 25.3169 216.066 25.913C216.408 26.5091 216.582 27.2626 216.582 28.1754C216.582 29.1472 216.376 29.9952 215.964 30.7211C215.551 31.4451 214.997 32.0451 214.301 32.5192C213.606 32.9934 212.818 33.3475 211.939 33.5816C211.06 33.8157 210.153 33.9337 209.22 33.9337L209.226 33.9239Z" fill="#FC446E"/>
<path d="M228.227 33.9239C226.868 33.9239 225.644 33.6878 224.554 33.2137C223.461 32.7396 222.566 32.0608 221.867 31.1775C221.167 30.2942 220.722 29.2397 220.535 28.016L224.153 27.4888C224.408 28.5275 224.934 29.3282 225.732 29.8909C226.529 30.4516 227.438 30.7329 228.456 30.7329C229.025 30.7329 229.577 30.6444 230.113 30.4693C230.647 30.2942 231.088 30.0325 231.43 29.6902C231.775 29.3459 231.947 28.923 231.947 28.4213C231.947 28.2364 231.919 28.0593 231.863 27.8862C231.807 27.715 231.718 27.5537 231.59 27.4022C231.462 27.2508 231.283 27.1091 231.048 26.9753C230.815 26.8416 230.52 26.7196 230.163 26.6114L225.399 25.2283C225.042 25.128 224.627 24.9864 224.157 24.8014C223.686 24.6165 223.23 24.3529 222.787 24.0086C222.345 23.6643 221.978 23.2099 221.685 22.6453C221.392 22.0806 221.245 21.3645 221.245 20.5029C221.245 19.2871 221.556 18.2778 222.175 17.4732C222.795 16.6686 223.623 16.0685 224.659 15.6751C225.696 15.2816 226.842 15.0888 228.098 15.0967C229.363 15.1144 230.492 15.3268 231.486 15.738C232.479 16.1492 233.312 16.7453 233.982 17.5302C234.652 18.3132 235.136 19.2713 235.433 20.4025L231.688 21.0301C231.552 20.4438 231.301 19.95 230.936 19.5467C230.571 19.1454 230.137 18.8385 229.631 18.63C229.126 18.4214 228.596 18.3073 228.044 18.2916C227.5 18.2739 226.989 18.3486 226.509 18.5119C226.029 18.6752 225.638 18.9113 225.337 19.2221C225.036 19.533 224.884 19.9009 224.884 20.3278C224.884 20.7212 225.008 21.0419 225.253 21.2898C225.5 21.5377 225.809 21.7364 226.184 21.8878C226.557 22.0393 226.94 22.1652 227.33 22.2656L230.514 23.1214C230.988 23.2473 231.514 23.4125 232.092 23.6171C232.67 23.8217 233.224 24.107 233.755 24.4729C234.285 24.8369 234.723 25.3169 235.066 25.913C235.409 26.5091 235.583 27.2626 235.583 28.1754C235.583 29.1472 235.377 29.9952 234.965 30.7211C234.552 31.4451 233.998 32.0451 233.302 32.5192C232.607 32.9934 231.819 33.3475 230.94 33.5816C230.061 33.8157 229.154 33.9337 228.221 33.9337L228.227 33.9239Z" fill="#FC446E"/>
</svg>
